<svg fill="none" height="29" viewBox="0 0 21 29" width="21" xmlns="http://www.w3.org/2000/svg"><g fill="#b3b3c3"><path d="m19.7749 26.1919c-.6623 0-1.3215 0-1.9839 0-1.0447 0-2.0895 0-3.1343 0-.2487 0-.5037.0155-.7524-.0032.0839.0125.1648.0218.2487.0342-.028-.0031-.0529-.0124-.0808-.0248.0746.031.1492.0621.2238.0932-.0839-.0497-.0559-.0156.0902.1056.1213.1429.1555.174.1057.0901.0311.0746.0622.1492.0933.2237-.0124-.0248-.0186-.0528-.0249-.0808.0125.0839.0218.1647.0342.2486-.0186-.2392-.0031-.4816-.0031-.7177 0-.6214 0-1.2397 0-1.8611 0-.9197 0-1.8393 0-2.759 0-1.1216 0-2.2463 0-3.368 0-1.2303 0-2.4607 0-3.6911 0-1.2427 0-2.4824 0-3.7252 0-1.15271 0-2.3054 0-3.45809 0-.9787 0-1.95429 0-2.93299 0-.70218 0-1.40436 0-2.10653 0-.32934-.0062-.66179 0-.99113 0-.02796 0-.05593.0031-.08389-.0124.08389-.0217.16467-.0342.24856.0032-.02796.0125-.05282.0249-.08078-.0311.07457-.0622.14913-.0933.2237.0498-.08389.0156-.05592-.1057.0901-.143.12118-.1741.15535-.0902.10564-.0746.03107-.1492.06214-.2238.09321.0248-.01243.0528-.01864.0808-.02486-.0839.01243-.1648.02175-.2487.03418.2021-.01553.4104-.00311.6125-.00311h1.3993 3.1498c.2488 0 .5037-.01553.7525.00311-.084-.01243-.1648-.02175-.2488-.03418.028.00311.0529.01243.0809.02486-.0746-.03107-.1493-.06214-.2239-.09321.084.04971.056.01554-.0902-.10564-.1212-.14292-.1554-.17399-.1057-.0901-.0311-.07457-.0622-.14913-.0933-.2237.0125.02485.0187.05282.0249.08078-.0124-.08389-.0218-.16467-.0342-.24856.0187.23924.0031.48158.0031.71771v1.86108 2.759 3.36797 3.69107 3.7253 3.4581 2.9329 2.1066c0 .3293.0062.6618 0 .9911 0 .028 0 .0559-.0031.0839.0124-.0839.0218-.1647.0342-.2486-.0031.028-.0124.0529-.0249.0808.0311-.0745.0622-.1491.0933-.2237-.0497.0839-.0155.0559.1057-.0901.1431-.1212.1742-.1553.0902-.1056.0746-.0311.1493-.0622.2239-.0932-.0249.0124-.0529.0186-.0809.0248.084-.0124.1648-.0217.2488-.0342-.0155.0032-.0311.0032-.0435.0032-.2488.0186-.4789.0901-.6592.2734-.1617.1615-.283.4256-.2737.6587.0218.4753.4105.9693.9329.932.3358-.0248.6374-.1242.8799-.3728.2208-.2299.3328-.5344.3452-.8482 0-.0062 0-.0155 0-.0217 0-.0498 0-.0995 0-.1461 0-.2268 0-.4536 0-.6804 0-.8793 0-1.7586 0-2.6378 0-1.2925 0-2.5819 0-3.8744 0-1.5193 0-3.0418 0-4.5611 0-1.5473 0-3.0914 0-4.6387 0-1.40436 0-2.80561 0-4.20996 0-1.05638 0-2.11586 0-3.17223 0-.52819 0-1.05637 0-1.58456 0-.02796 0-.05593 0-.08078-.0187-.714607-.5908-1.22104441-1.2904-1.22104441-.482 0-.9608 0-1.4428 0-1.3495 0-2.7021 0-4.0516 0-.1493 0-.2861.00000007-.4353.01864191-.6219.0838885-1.0417.6120755-1.0572 1.2272525-.0031.14293 0 .28895 0 .43187v2.25878 3.61342 4.44921 4.6791 4.3591 3.4829 2.0196c0 .0963-.0031.1926 0 .2889.0186.6773.5472 1.2024 1.222 1.221h.0746.541 4.2413.9702c.4881 0 .9546-.4287.9328-.932-.0218-.5034-.4073-.9321-.9297-.9321z"/><path d="m13.6524 24.685h2.1673 3.4545.7898c.4882 0 .9546-.4288.9329-.9321-.0218-.5064-.4105-.9321-.9329-.9321-.7214 0-1.4459 0-2.1672 0-1.1505 0-2.301 0-3.4546 0-.2643 0-.5255 0-.7898 0-.4882 0-.9546.4288-.9329.9321.0218.5064.4105.9321.9329.9321z"/><path d="m20.064 3.37729c-.7214 0-1.4459 0-2.1672 0-1.1505 0-2.301 0-3.4546 0-.2643 0-.5255 0-.7898 0-.4882 0-.9546.42876-.9329.93209.0218.50644.4105.9321.9329.9321h2.1673 3.4545.7898c.4882 0 .9546-.42877.9329-.9321-.0249-.50643-.4105-.93209-.9329-.93209z"/><path d="m15.9254 11.9028v4.0205.5717c0 .4878.4291.9538.9328.9321.5069-.0218.9328-.4102.9328-.9321 0-1.3391 0-2.6783 0-4.0205 0-.1895 0-.3821 0-.5717 0-.4878-.4291-.9538-.9328-.9321-.5068.0249-.9328.4102-.9328.9321z"/><path d="m7.39874 26.1918c-.69652 0-1.39303 0-2.09266 0-1.10696 0-2.21703 0-3.32399 0-.2643 0-.53171.0156-.79601-.0031.08395.0125.1648.0218.24875.0342-.02798-.0031-.05286-.0124-.08084-.0248.07462.031.14925.0621.22388.0932-.08396-.0498-.05597-.0156.09017.1056.12127.1429.15547.174.10572.0901.0311.0746.06219.1491.09329.2237-.01244-.0249-.01866-.0528-.02488-.0808.01244.0839.02177.1647.0342.2486-.01865-.2393-.00311-.4816-.00311-.7177 0-.6214 0-1.2397 0-1.8611 0-.9197 0-1.8393 0-2.759 0-1.1216 0-2.2464 0-3.368 0-1.2303 0-2.4607 0-3.6911 0-1.2428 0-2.4824 0-3.7252 0-1.15273 0-2.30542 0-3.4581 0-.9787 0-1.95429 0-2.93299 0-.70218 0-1.40436 0-2.10654 0-.32934-.00622-.66178 0-.99112 0-.02797 0-.05593.00311-.08389-.01243.08389-.02176.16467-.0342.24856.00311-.02797.01244-.05282.02488-.08078-.0311.07456-.06219.14913-.09329.2237.04975-.08389.01555-.05593-.10572.0901-.14303.12117-.17413.15535-.09017.10564-.07463.03107-.14926.06214-.22388.09321.02487-.01243.05286-.01864.08084-.02486-.08395.01243-.1648.02175-.24875.03418.21144-.01554.4291-.00311.64365-.00311h1.47699 3.33953c.2643 0 .53172-.01553.79602.00311-.08396-.01243-.1648-.02175-.24876-.03418.02799.00311.05286.01243.08085.02486-.07463-.03107-.14925-.06214-.22388-.09321.08395.04971.05597.01553-.09017-.10564-.12127-.14292-.15548-.17399-.10573-.0901-.03109-.07457-.06218-.14914-.09328-.2237.01244.02485.01866.05281.02488.08078-.01244-.08389-.02177-.16467-.03421-.24856.01866.23924.00311.48158.00311.71771v1.86108 2.759 3.36797 3.69108 3.7253 3.458 2.933 2.1066c0 .3293.00622.6618 0 .9911 0 .028 0 .0559-.00311.0839.01244-.0839.02177-.1647.03421-.2486-.00311.028-.01244.0528-.02488.0808.0311-.0746.06219-.1491.09328-.2237-.04975.0839-.01554.0559.10573-.0901.14303-.1212.17412-.1554.09017-.1056.07463-.0311.14925-.0622.22388-.0932-.02488.0124-.05286.0186-.08085.0248.08396-.0124.1648-.0217.24876-.0342-.01555.0031-.02799.0031-.04353.0031-.24876.0187-.47886.0901-.65921.2735-.16169.1615-.28295.4256-.27363.6586.02177.4754.41045.9694.93284.9321.38246-.0279.71206-.1553.95148-.466.17413-.2237.2612-.4723.27052-.755 0-.0062 0-.0156 0-.0218 0-.0497 0-.1025 0-.1522 0-.2299 0-.4598 0-.6929 0-.8979 0-1.7958 0-2.6968 0-1.3143 0-2.6254 0-3.9397 0-1.5348 0-3.0697 0-4.6045 0-1.5628 0-3.1256 0-4.6916 0-1.3981 0-2.79624 0-4.19438 0-1.04084 0-2.08478 0-3.12562 0-.48469.00622-.96938 0-1.45407-.00621-.434973-.19278-.817132-.5628-1.062583-.2612-.1739911-.55037-.198847-.84888-.198847-.55348 0-1.10385 0-1.65733 0-1.35572 0-2.70832 0-4.06404 0-.14614 0-.28296-.00000005-.4291.0186418-.621887.0838882-1.0416608.6120752-1.05720803 1.2272582-.00310944.14603 0 .29205 0 .43808v2.29917 3.70041 4.49584 4.7226 4.3684 3.4394 1.9077.1709c.00621888.4381.20522303.8544.59390303 1.0843.425995.2517 1.035445.174 1.511185.174h4.33145.95149c.48818 0 .95459-.4288.93283-.9321-.01244-.494-.40112-.9228-.9235-.9228z"/><path d="m7.68795 19.2726c-.75871 0-1.51741 0-2.273 0-1.21269 0-2.42848 0-3.64116 0-.27674 0-.55348 0-.830216 0-.503729 0-.9328318.4257-.9328318.9321v2.7839.3977c0 .5033.4259928.932.9328318.932h2.272996 3.64115.83023c.50372 0 .93283-.4256.93283-.932 0-.929 0-1.8549 0-2.7839 0-.1336 0-.2641 0-.3977 0-.4878-.42911-.9538-.93283-.9321-.50684.0218-.93284.4101-.93284.9321v2.7839.3977c.31095-.3107.62189-.6214.93284-.9321-.75871 0-1.51741 0-2.273 0-1.21269 0-2.42848 0-3.64116 0-.27674 0-.55348 0-.830216 0 .310946.3107.621886.6214.932836.9321 0-.929 0-1.8549 0-2.7839 0-.1336 0-.2641 0-.3977-.31095.3107-.62189.6214-.932836.9321h2.272996 3.64115.83023c.48818 0 .95459-.4288.93283-.9321-.02177-.5033-.41045-.9321-.93283-.9321z"/><path d="m7.68795 3.52954c-.75871 0-1.51741 0-2.273 0-1.21268 0-2.42847 0-3.64116 0-.27674 0-.55348 0-.830216 0-.488181 0-.9545972.42876-.9328311.9321.021766.50643.4104461.93209.9328311.93209h2.272996 3.64116.83022c.48818 0 .95459-.42876.93283-.93209-.02177-.50334-.41045-.9321-.93283-.9321z"/></g></svg>