<svg fill="none" height="22" viewBox="0 0 28 22" width="28" xmlns="http://www.w3.org/2000/svg"><path d="m14 7.00002c-.9889 0-1.9556.29325-2.7779.84265-.8222.54941-1.46306 1.3303-1.8415 2.24393-.37844.9136-.47745 1.919-.28453 2.8889.19293.9699.66913 1.8608 1.36843 2.5601.6992.6992 1.5901 1.1754 2.56 1.3683.97.193 1.9753.094 2.8889-.2845.9136-.3784 1.6945-1.0193 2.2439-1.8415.5495-.8223.8427-1.789.8427-2.7779 0-1.3261-.5268-2.59783-1.4645-3.53551-.9376-.93768-2.2094-1.46447-3.5355-1.46447zm0 7.99998c-.5933 0-1.1734-.1759-1.6667-.5056-.4934-.3296-.8779-.7981-1.1049-1.3463-.2271-.5482-.2865-1.1514-.1708-1.7333.1158-.582.4015-1.1165.8211-1.5361.4195-.41956.9541-.70528 1.536-.82103.582-.11576 1.1852-.05635 1.7334.17071.5481.22707 1.0167.61158 1.3463 1.10492.3297.4934.5056 1.0734.5056 1.6667 0 .7957-.3161 1.5587-.8787 2.1213-.5626.5627-1.3257.8787-2.1213.8787zm11-11.99998h-5.28l-.32-1c-.2074-.58677-.5923-1.094495-1.1011-1.452837-.5088-.358343-1.1165-.5495599-1.7389-.5471607h-5.12c-.6285.00117571-1.2407.1996827-1.75023.5675057-.50957.367822-.89076.886382-1.08977 1.482492l-.32 1h-5.28c-.79565 0-1.55871.31607-2.12132.87868-.562609.56261-.87868 1.32567-.87868 2.12132v12.94998c0 .7957.316071 1.5587.87868 2.1213.56261.5627 1.32567.8787 2.12132.8787h22c.7956 0 1.5587-.316 2.1213-.8787.5626-.5626.8787-1.3256.8787-2.1213v-12.99998c0-.79565-.3161-1.55871-.8787-2.12132s-1.3257-.87868-2.1213-.87868zm1 15.99998c0 .2652-.1054.5196-.2929.7071-.1875.1876-.4419.2929-.7071.2929h-22c-.26522 0-.51957-.1053-.70711-.2929-.18753-.1875-.29289-.4419-.29289-.7071v-12.99998c0-.26521.10536-.51957.29289-.7071.18754-.18754.44189-.2929.70711-.2929h6c.21807.01138.43386-.04892.61443-.17171s.31599-.30131.38557-.50829l.54-1.64c.0642-.19074.1844-.35769.345-.47901.1605-.12132.354-.19137.555-.20099h5.12c.2181-.01138.4339.04893.6144.17172.1806.12278.316.3013.3856.50828l.54 1.64c.0642.19075.1844.35769.345.47901.1605.12132.354.19137.555.20099h6c.2652 0 .5196.10536.7071.2929.1875.18753.2929.44189.2929.7071z" fill="#000"/></svg>