<svg fill="none" height="31" viewBox="0 0 29 31" width="29" xmlns="http://www.w3.org/2000/svg"><path d="m29 21.3125c0 2.6709-2.0326 4.8437-4.5312 4.8437h-3.7383v2.4219h2.2656c.6257 0 1.1328.5421 1.1328 1.211 0 .6688-.5071 1.2109-1.1328 1.2109h-6.7969c-.6257 0-1.1328-.5421-1.1328-1.2109 0-.6689.5071-1.211 1.1328-1.211h2.2656v-2.4219h-2.2656c-.6257 0-1.1328-.542-1.1328-1.2109 0-.6688.5071-1.2109 1.1328-1.2109h8.2696c1.2491 0 2.2656-1.0866 2.2656-2.4219 0-.6689.5071-1.2109 1.1328-1.2109s1.1328.542 1.1328 1.2109zm-4.5312-15.74219h-8.2696c-.6257 0-1.1328.54209-1.1328 1.21094s.5071 1.21094 1.1328 1.21094h8.2696c1.2491 0 2.2656 1.08653 2.2656 2.42191v4.8437c0 .6689.5071 1.211 1.1328 1.211s1.1328-.5421 1.1328-1.211v-4.8437c0-2.67096-2.0326-4.84379-4.5312-4.84379zm-11.668-1.9375v23.73439c0 2.0032-1.5244 3.6328-3.39846 3.6328h-6.0039c-1.87401 0-3.39844-1.6296-3.39844-3.6328v-23.73439c0-2.00325 1.52443-3.63281 3.39844-3.63281h6.0039c1.87406 0 3.39846 1.62956 3.39846 3.63281zm-2.2656 0c0-.66767-.5083-1.21093-1.13286-1.21093h-6.0039c-.6246 0-1.13282.54326-1.13282 1.21093v23.73439c0 .6677.50822 1.2109 1.13282 1.2109h6.0039c.62456 0 1.13286-.5432 1.13286-1.2109zm-2.83208 12.23049h-2.60546c-.62571 0-1.13282.5421-1.13282 1.2109 0 .6689.50711 1.211 1.13282 1.211h2.60546c.62571 0 1.13282-.5421 1.13282-1.211 0-.6688-.50711-1.2109-1.13282-1.2109zm0-11.01955h-2.60546c-.62571 0-1.13282.54208-1.13282 1.21094 0 .66885.50711 1.21093 1.13282 1.21093h2.60546c.62571 0 1.13282-.54208 1.13282-1.21093 0-.66886-.50711-1.21094-1.13282-1.21094zm0 15.25785h-2.60546c-.62571 0-1.13282.542-1.13282 1.2109s.50711 1.2109 1.13282 1.2109h2.60546c.62571 0 1.13282-.542 1.13282-1.2109s-.50711-1.2109-1.13282-1.2109zm-1.18945 4.2382c-.6257 0-1.13281.5421-1.13281 1.211 0 .6688.50711 1.2109 1.13281 1.2109s1.13281-.5421 1.13281-1.2109c0-.6689-.50711-1.211-1.13281-1.211z" fill="#b3b3c3"/></svg>