<svg fill="none" height="28" viewBox="0 0 28 28" width="28" xmlns="http://www.w3.org/2000/svg"><g fill="#000"><path d="m13.9999 9.0603c-2.7256 0-4.93984 2.2142-4.93984 4.9398s2.21424 4.9398 4.93984 4.9398 4.9398-2.2142 4.9398-4.9398-2.2142-4.9398-4.9398-4.9398zm0 7.9037c-1.6331 0-2.9639-1.3308-2.9639-2.9639 0-1.633 1.3308-2.9639 2.9639-2.9639 1.633 0 2.9639 1.3309 2.9639 2.9639 0 1.6331-1.3309 2.9639-2.9639 2.9639z"/><path d="m27.012 10.2806c.5463 0 .988-.44166.988-.98795 0-.54628-.4417-.98796-.988-.98796h-2.3188v-1.70278c0-1.82482-1.4645-3.29514-3.2951-3.29514h-1.7028v-2.318808c0-.546285-.4417-.987962-.988-.987962-.5462 0-.9879.441677-.9879.987962v2.318808h-7.4388v-2.318808c0-.546285-.44166-.987962-.98795-.987962-.54628 0-.98796.441677-.98796.987962v2.318808h-1.70278c-1.83064 0-3.29514 1.4645-3.29514 3.29514v1.70278h-2.318808c-.546285 0-.987962.44168-.987962.98796 0 .54629.441677.98795.987962.98795h2.318808v7.4388h-2.318808c-.546285 0-.987962.4417-.987962.9879 0 .5463.441677.988.987962.988h2.318808v1.7028c0 1.8248 1.4645 3.2951 3.29514 3.2951h1.70278v2.3188c0 .5463.44168.988.98796.988.54629 0 .98795-.4417.98795-.988v-2.3188h7.4388v2.3188c0 .5463.4417.988.9879.988.5463 0 .988-.4417.988-.988v-2.3188h1.7028c1.8248 0 3.2951-1.4645 3.2951-3.2951v-1.7028h2.3188c.5463 0 .988-.4417.988-.988 0-.5462-.4417-.9879-.988-.9879h-2.3188v-7.4388zm-4.2366 11.1582c0 .738-.5986 1.3366-1.3366 1.3366h-14.81946c-.73806 0-1.33665-.5986-1.33665-1.3366v-14.81946c0-.73806.59859-1.33665 1.33665-1.33665h14.81946c.738 0 1.3366.59859 1.3366 1.33665z"/></g></svg>