<svg fill="none" height="16" viewBox="0 0 15 16" width="15" xmlns="http://www.w3.org/2000/svg"><g fill="#000"><path d="m14.125 2.59375h-3.7812v-.71875c0-1.033875-.84118-1.875-1.87505-1.875h-2.1875c-1.03387 0-1.875.841125-1.875 1.875v.71875h-3.78125c-.345187 0-.625.27981-.625.625s.279813.625.625.625h.64725l.76169 9.87455c.00022.0029.00047.0058.00072.0087.05675.6227.34231 1.1977.80406 1.6193.46175.4215 1.06037.6537 1.68559.6537h5.70139c1.3021 0 2.3724-.9698 2.4896-2.2557.0314-.3438-.2219-.6479-.5656-.6792-.3441-.0313-.6479.2219-.6792.5656-.0582.6381-.5933 1.1193-1.2448 1.1193h-5.70139c-.64928 0-1.18359-.4866-1.24447-1.1326l-.75387-9.77365h9.69803l-.5338 6.92065c-.0265.3442.231.6447.5751.6713.0164.0012.0326.0018.0488.0018.3233 0 .5971-.2492.6224-.5769l.5412-7.01685h.6473c.3452 0 .625-.27981.625-.625s-.2798-.625-.625-.625zm-5.03125 0h-3.4375v-.71875c0-.34462.28038-.625.625-.625h2.1875c.34462 0 .625.28038.625.625z"/><path d="m4.53523 5.09439c-.34484.01506-.61219.30681-.59712.65169l.3125 7.15412c.01465.3356.29131.5978.62393.5978.00919 0 .01847-.0002.02775-.0006.34485-.0151.61219-.3069.59713-.6517l-.3125-7.15422c-.01506-.34481-.30738-.61259-.65169-.59709z"/><path d="m9.56311 5.69148-.3125 7.15422c-.01507.3448.25228.6366.59712.6517.00928.0004.01853.0006.02775.0006.33262 0 .60932-.2622.62392-.5978l.3125-7.15413c.0151-.34484-.2523-.63662-.5971-.65169-.34429-.0154-.63663.25225-.65169.5971z"/><path d="m6.75 5.71875v7.15415c0 .3452.27981.625.625.625s.625-.2798.625-.625v-7.15415c0-.34519-.27981-.625-.625-.625s-.625.27981-.625.625z"/></g></svg>