<svg fill="none" height="13" viewBox="0 0 11 13" width="11" xmlns="http://www.w3.org/2000/svg"><path d="m3.9875 12.806c.18414.1165.39432.1829.61054.1927.21623.0099.43132-.0371.62484-.1364l1.69231-.8667c.21035-.1081.38723-.2739.51088-.479.12364-.2051.18919-.4414.18931-.6824v-3.79415l3.01232-3.08774c.2381-.24358.372-.57405.3723-.91874v-1.73347c0-.344806-.1337-.675493-.3717-.919309-.2381-.243816-.5609-.380791-.89753-.380791h-8.46154c-.33662 0-.659454.136975-.897481.380791s-.371749.574503-.371749.919309v1.73347c.00029624.34469.134213.67516.372308.91874l3.012312 3.08774v4.66085c.00023.2216.05574.4394.16126.6328.10551.1934.25753.356.44162.4723zm-2.71827-9.77243v-1.73347h8.46154v1.73347l-3.38462 3.46694v4.33369l-1.6923.8667v-5.20039z" fill="#000"/></svg>