<svg fill="none" height="30" viewBox="0 0 32 30" width="32" xmlns="http://www.w3.org/2000/svg"><path d="m15.1951 29.6484c.1037.1111.2284.1996.3666.26.1381.0604.2869.0916.4372.0916.303-.0044.5919-.1308.8039-.3516l12.3261-12.1484c1.8505-1.9302 2.8819-4.5263 2.871-7.2266.0006-2.70973-1.0286-5.31415-2.871-7.26559-1.66-1.68313-3.8995-2.636529-6.2396-2.656248h-.0383c-2.5129.031882-4.9362.957468-6.8521 2.617188-2.1819-1.95312-4.249-2.96875-6.16301-2.96875-1.29865.00527173-2.58332.273892-3.77934.790248-1.19603.516352-2.27955 1.270152-3.18758 2.217562-1.84697 1.95147-2.87607992 4.56055-2.86893302 7.27359.00714689 2.713 1.04998302 5.3164 2.90721302 7.2577zm-10.6801-24.99996c.6909-.72761 1.51776-1.30646 2.43168-1.70231.91393-.39586 1.89637-.60069 2.88921-.60238 1.53121 0 3.36861 1.05469 5.35921 3.04687.1037.1111.2284.19954.3666.25997.1381.06044.2869.0916.4372.0916.1504 0 .2992-.03116.4373-.0916.1382-.06043.2629-.14887.3666-.25997 1.5974-1.66469 3.766-2.6311 6.0482-2.69531h.0383c1.7243.00431 3.3764.70678 4.5936 1.95313 1.4199 1.50638 2.2131 3.51532 2.2131 5.60546 0 2.0901-.7932 4.0991-2.2131 5.6055l-11.484 11.3281-11.36906-11.2109h3.36862c.19227.0012.38155-.0486.54931-.1444.16776-.0959.30824-.2346.40769-.4025l1.56944-2.4219 3.2921 6.4453c.1043.1783.2493.3282.4225.437.1733.1088.3698.1733.5728.188h.0383c.196-.0027.3878-.0584.5559-.1613.168-.1029.3064-.2494.401-.4246l3.828-6.3672 2.1437 2.1094c.2147.2147.5033.335.8039.335s.5892-.1203.8039-.335c.1099-.1092.1973-.2398.257-.3841.0597-.1442.0904-.2992.0904-.4558 0-.1565-.0307-.3115-.0904-.4558-.0597-.1442-.1471-.2748-.257-.384l-3.1773-3.125c-.1301-.1161-.2821-.2038-.4467-.2575-.1646-.0538-.3383-.0725-.5103-.055-.1716.0206-.3365.0805-.4823.1752s-.2688.2217-.3598.3717l-3.4835 5.8593-3.2538-6.3672c-.0861-.18518-.2214-.34199-.3906-.4525s-.3655-.17026-.5664-.17245c-.2012-.01941-.4039.01763-.586.10712-.18215.08949-.33689.22804-.44753.40073l-2.29679 3.5937h-4.3639c-.65457-1.4793-.86215-3.1242-.59623-4.7245.26592-1.60031.99327-3.08341 2.08915-4.25986z" fill="#000"/></svg>