<svg fill="none" height="16" viewBox="0 0 12 16" width="12" xmlns="http://www.w3.org/2000/svg"><g fill="#000"><path d="m6.00081 0c-3.3088 0-6.00081 2.69119-6.00081 5.99919 0 1.598.621669 3.10104 1.75057 4.23481l3.94996 4.8849c.09901.1225.24834.194.4066.194h.00568c.15988-.0017.31002-.0763.40741-.2029l3.97918-5.1495c.9674-1.09725 1.5006-2.5029 1.5006-3.96131.0008-3.308-2.69038-5.99919-5.99919-5.99919zm3.70567 9.2804c-.00812.00893-.01542.01785-.02273.02759l-3.58555 4.63981-3.55147-4.39227c-.01136-.01461-.02434-.02841-.03814-.04221-.94305-.93818-1.46328-2.18639-1.46328-3.51332 0-2.73177 2.22292-4.95388 4.95469-4.95388s4.9547 2.22211 4.9547 4.95388c.0008 1.20763-.4431 2.37306-1.24822 3.2804z"/><path d="m6.0007 3.81689c-1.03882 0-1.88449.84567-1.88449 1.88449s.84567 1.88367 1.88449 1.88367 1.88367-.84485 1.88367-1.88367c.00081-1.03882-.84485-1.88449-1.88367-1.88449zm0 2.72285c-.4626 0-.83836-.37657-.83836-.83836 0-.4626.37657-.83917.83836-.83917.4626 0 .83836.37657.83836.83917s-.37576.83836-.83836.83836z"/></g></svg>