<svg fill="none" height="30" viewBox="0 0 19 30" width="19" xmlns="http://www.w3.org/2000/svg"><g fill="#fff"><path d="m14.1662 0h-9.99949c-2.29675 0-4.16671 1.86996-4.16671 4.16671v21.66659c0 2.2967 1.86996 4.1667 4.16671 4.1667h9.99949c2.2968 0 4.1667-1.87 4.1667-4.1667v-21.66659c0-2.29822-1.8699-4.16671-4.1667-4.16671zm2.5006 25.8318c0 1.3787-1.1219 2.5006-2.5006 2.5006h-9.99949c-1.37864 0-2.50061-1.1219-2.50061-2.5006v-21.66509c0-1.37864 1.12197-2.50061 2.50061-2.50061h9.99949c1.3787 0 2.5006 1.12197 2.5006 2.50061z"/><path d="m9.16646 27.4979c.92014 0 1.66614-.7459 1.66614-1.6661 0-.9201-.746-1.6661-1.66614-1.6661-.92016 0-1.66609.746-1.66609 1.6661 0 .9202.74593 1.6661 1.66609 1.6661z"/><path d="m10.8326 2.49915h-3.3337c-.46053 0-.83305.37252-.83305.83304 0 .46053.37252.83305.83305.83305h3.3337c.4605 0 .833-.37252.833-.83305 0-.46052-.3725-.83304-.833-.83304z"/></g></svg>