<svg fill="none" height="18" viewBox="0 0 18 18" width="18" xmlns="http://www.w3.org/2000/svg"><path d="m8.50598 0c2.72432 0 4.95832 2.27634 4.95832 5.05237 0 1.83217-.9808 3.44227-2.3974 4.3306 3.2147.99933 5.6122 3.88643 5.9391 7.43973.109.8883-1.2532 1.0549-1.3622.1111-.3814-3.6644-3.4327-6.5515-7.13782-6.5515-3.70513 0-6.75641 2.8871-7.13782 6.5515-.05449.9438-1.471158.7772-1.36218338-.1111.38141038-3.5533 2.77884338-6.4404 5.99359338-7.43973-1.47116-.88833-2.45193-2.49843-2.45193-4.3306 0-2.77603 2.23398-5.05237 4.95834-5.05237zm0 1.38801c-1.96154 0-3.54167 1.66562-3.54167 3.66436 0 1.99873 1.58013 3.60883 3.54167 3.60883 1.96152 0 3.59612-1.6101 3.59612-3.60883 0-1.99874-1.6346-3.66436-3.59612-3.66436z" fill="#000"/></svg>