<svg fill="none" height="16" viewBox="0 0 16 16" width="16" xmlns="http://www.w3.org/2000/svg"><g fill="#000"><path d="m1.74601 6.86282h3.97993c.30159 0 .59082-.1198.80407-.33305.21325-.21326.33306-.50249.33306-.80407v-3.97993c0-.30159-.11981-.59082-.33306-.804071-.21325-.213252-.50248-.333056-.80407-.333056h-3.97993c-.30158 0-.59082.119804-.804067.333056-.213252.213251-.333056.502481-.333056.804071v3.97993c0 .30158.119804.59081.333056.80407.213247.21325.502487.33305.804067.33305zm.56856-4.54849h2.84281v2.84281h-2.84281z"/><path d="m1.74601 15.3913h3.97993c.30159 0 .59082-.1198.80407-.3331.21325-.2132.33306-.5025.33306-.8041v-3.9799c0-.30158-.11981-.59081-.33306-.80406s-.50248-.33306-.80407-.33306h-3.97993c-.30158 0-.59082.11981-.804067.33306-.213252.21325-.333056.50248-.333056.80406v3.9799c0 .3016.119804.5909.333056.8041.213247.2133.502487.3331.804067.3331zm.56856-4.5485h2.84281v2.8428h-2.84281z"/><path d="m10.2743 6.86282h3.98c.3015 0 .5908-.1198.804-.33305.2133-.21326.3331-.50249.3331-.80407v-3.97993c0-.30159-.1198-.59082-.3331-.804071-.2132-.213252-.5025-.333056-.804-.333056h-3.98c-.30155 0-.59078.119804-.80404.333056-.21325.213251-.33305.502481-.33305.804071v3.97993c0 .30158.1198.59081.33305.80407.21326.21325.50249.33305.80404.33305zm.5686-4.54849h2.8428v2.84281h-2.8428z"/><path d="m13.1173 11.4114h-1.7057v1.7057h1.7057z"/><path d="m14.8229 10.132c0-.1131-.045-.22157-.1249-.30154-.08-.07997-.1885-.12489-.3015-.12489h-1.2793v1.70573h1.7057z"/><path d="m10.1325 9.70557c-.1131 0-.22158.04492-.30155.12489s-.1249.18844-.1249.30154v1.2793h1.70565v-1.70573z"/><path d="m14.3965 14.8226c.113 0 .2215-.0449.3015-.1249.0799-.0799.1249-.1884.1249-.3015v-1.2793h-1.7057v1.7057z"/><path d="m9.70605 14.3962c0 .1131.04493.2216.1249.3015.07997.08.18845.1249.30155.1249h1.2792v-1.7057h-1.70565z"/></g></svg>