<svg fill="none" height="21" viewBox="0 0 28 21" width="28" xmlns="http://www.w3.org/2000/svg" xmlns:xlink="http://www.w3.org/1999/xlink"><mask id="a" fill="#fff"><path d="m25.8462 15.7362v-3.1682c-1.1922-.5809-2.1539-1.7402-2.1539-3.38853v-.00262c0-1.64706.9628-2.80499 2.1539-3.38592v-3.16822h-16.15389c-.00539 0-.00969 0-.01508 0-.59123 0-1.07692-.59142-1.07692-1.31136 0-.71993.48569-1.31135 1.07692-1.31135h.01508 17.23079c.5912 0 1.0769.59142 1.0769 1.31135v5.24541c0 .71994-.4857 1.31136-1.0769 1.31136h-.0022c-.6052 0-1.0747.57175-1.0747 1.30873v.00262c0 .74091.4684 1.31133 1.0769 1.31133.5912 0 1.0769.5914 1.0769 1.3114v5.2454c0 .7199-.4857 1.3113-1.0769 1.3113h-1.0769v1.3114.0183c0 .72-.4857 1.3114-1.077 1.3114-.5912 0-1.0769-.5914-1.0769-1.3114 0-.0065 0-.0118 0-.0183v-1.3114h-2.1538v1.3114.0183c0 .72-.4857 1.3114-1.077 1.3114-.5912 0-1.0769-.5914-1.0769-1.3114 0-.0065 0-.0118 0-.0183v-1.3114h-6.4615v1.3114.0183c0 .72-.4857 1.3114-1.0769 1.3114-.5913 0-1.077-.5914-1.077-1.3114 0-.0065 0-.0118 0-.0183v-1.3114h-2.15381v1.3114.0183c0 .72-.4857 1.3114-1.07693 1.3114s-1.07692-.5914-1.07692-1.3114c0-.0065 0-.0118 0-.0183v-1.3114h-2.15385v1.3114.0183c0 .72-.48569 1.3114-1.07692 1.3114s-1.07692-.5914-1.07692-1.3114c0-.0065 0-.0118 0-.0183v-1.3114h-1.07693c-.591228 0-1.07692-.5914-1.07692-1.3113v-5.2454c0-.72.485692-1.3114 1.07692-1.3114.60846 0 1.07693-.57042 1.07693-1.31133v-.00262c0-.73698-.46954-1.30873-1.07477-1.30873h-.00216c-.591228 0-1.07692-.59142-1.07692-1.31136v-5.24541c0-.71993.485692-1.31135 1.07692-1.31135h4.3077.01507c.59123 0 1.07693.59142 1.07693 1.31135 0 .71994-.4857 1.31136-1.07693 1.31136-.00538 0-.00969 0-.01507 0h-3.23077v3.16822c1.19107.58093 2.15384 1.73886 2.15384 3.38592v.00262c0 1.64833-.96169 2.80763-2.15384 3.38853v3.1682z" fill="#fff"/></mask><g fill="#000"><path d="m25.8462 15.7362v-3.1682c-1.1922-.5809-2.1539-1.7402-2.1539-3.38853v-.00262c0-1.64706.9628-2.80499 2.1539-3.38592v-3.16822h-16.15389c-.00539 0-.00969 0-.01508 0-.59123 0-1.07692-.59142-1.07692-1.31136 0-.71993.48569-1.31135 1.07692-1.31135h.01508 17.23079c.5912 0 1.0769.59142 1.0769 1.31135v5.24541c0 .71994-.4857 1.31136-1.0769 1.31136h-.0022c-.6052 0-1.0747.57175-1.0747 1.30873v.00262c0 .74091.4684 1.31133 1.0769 1.31133.5912 0 1.0769.5914 1.0769 1.3114v5.2454c0 .7199-.4857 1.3113-1.0769 1.3113h-1.0769v1.3114.0183c0 .72-.4857 1.3114-1.077 1.3114-.5912 0-1.0769-.5914-1.0769-1.3114 0-.0065 0-.0118 0-.0183v-1.3114h-2.1538v1.3114.0183c0 .72-.4857 1.3114-1.077 1.3114-.5912 0-1.0769-.5914-1.0769-1.3114 0-.0065 0-.0118 0-.0183v-1.3114h-6.4615v1.3114.0183c0 .72-.4857 1.3114-1.0769 1.3114-.5913 0-1.077-.5914-1.077-1.3114 0-.0065 0-.0118 0-.0183v-1.3114h-2.15381v1.3114.0183c0 .72-.4857 1.3114-1.07693 1.3114s-1.07692-.5914-1.07692-1.3114c0-.0065 0-.0118 0-.0183v-1.3114h-2.15385v1.3114.0183c0 .72-.48569 1.3114-1.07692 1.3114s-1.07692-.5914-1.07692-1.3114c0-.0065 0-.0118 0-.0183v-1.3114h-1.07693c-.591228 0-1.07692-.5914-1.07692-1.3113v-5.2454c0-.72.485692-1.3114 1.07692-1.3114.60846 0 1.07693-.57042 1.07693-1.31133v-.00262c0-.73698-.46954-1.30873-1.07477-1.30873h-.00216c-.591228 0-1.07692-.59142-1.07692-1.31136v-5.24541c0-.71993.485692-1.31135 1.07692-1.31135h4.3077.01507c.59123 0 1.07693.59142 1.07693 1.31135 0 .71994-.4857 1.31136-1.07693 1.31136-.00538 0-.00969 0-.01507 0h-3.23077v3.16822c1.19107.58093 2.15384 1.73886 2.15384 3.38592v.00262c0 1.64833-.96169 2.80763-2.15384 3.38853v3.1682z"/><path d="m25.8462 15.7362v.2h.2v-.2zm0-3.1682h.2v-.125l-.1124-.0548zm0-6.77707.0876.17976.1124-.05478v-.12498zm0-3.16822h.2v-.2h-.2zm0 15.73619v-.2h-.2v.2zm-2.1539 0h.2v-.2h-.2zm-2.1538 0v-.2h-.2v.2zm-2.1539 0h.2v-.2h-.2zm-6.4615 0v-.2h-.2v.2zm-2.1539 0h.2v-.2h-.2zm-2.15381 0v-.2h-.2v.2zm-2.15385 0h.2v-.2h-.2zm-2.15385 0v-.2h-.2v.2zm-2.15384 0h.2v-.2h-.2zm0-15.73619v-.2h-.2v.2zm0 3.16822h-.2v.12498l.11232.05478zm0 6.77707-.08761-.1798-.11239.0548v.125zm0 3.1682h-.2v.2h.2zm23.89235 0v-3.1682h-.4v3.1682zm-.1124-3.348c-1.1357-.5534-2.0415-1.6496-2.0415-3.20873h-.4c0 1.73763 1.0176 2.95983 2.2662 3.56833zm-2.0415-3.20873v-.00262h-.4v.00262zm0-.00262c0-1.55764.9067-2.65266 2.0415-3.20616l-.1753-.35952c-1.2473.60837-2.2662 1.82919-2.2662 3.56568zm2.1539-3.38592v-3.16822h-.4v3.16822zm-.2-3.36822h-16.15389v.4h16.15389zm-16.15389 0c-.00001 0-.00002 0-.00003 0s-.00002 0-.00003 0c-.00002 0-.00003 0-.00004 0s-.00002 0-.00003 0-.00002 0-.00003 0-.00002 0-.00003 0-.00002 0-.00003 0-.00002 0-.00003 0-.00002 0-.00003 0c-.00002 0-.00003 0-.00004 0s-.00002 0-.00003 0-.00002 0-.00003 0-.00002 0-.00003 0-.00002 0-.00003 0-.00002 0-.00003 0-.00002 0-.00003 0-.00002 0-.00003 0c-.00002 0-.00003 0-.00004 0s-.00002 0-.00003 0-.00002 0-.00003 0-.00002 0-.00003 0-.00002 0-.00003 0-.00002 0-.00003 0-.00002 0-.00003 0-.00002 0-.00003 0-.00002 0-.00003 0-.00002 0-.00004 0c-.00001 0-.00002 0-.00003 0s-.00002 0-.00003 0-.00002 0-.00003 0-.00002 0-.00003 0-.00002 0-.00003 0-.00002 0-.00003 0-.00002 0-.00003 0-.00002 0-.00003 0-.00002 0-.00003 0-.00002 0-.00003 0-.00002 0-.00003 0-.00002 0-.00003 0-.00002 0-.00004 0c-.00001 0-.00002 0-.00003 0s-.00002 0-.00003 0-.00002 0-.00003 0-.00002 0-.00003 0-.00002 0-.00003 0-.00002 0-.00003 0-.00002 0-.00003 0-.00002 0-.00003 0-.00002 0-.00003 0-.00002 0-.00003 0-.00002 0-.00003 0-.00002 0-.00003 0-.00002 0-.00003 0-.00002 0-.00003 0-.00002 0-.00003 0-.00002 0-.00003 0-.00002 0-.00003 0-.00002 0-.00003 0-.00002 0-.00003 0-.00002 0-.00003 0-.00002 0-.00003 0-.00002 0-.00003 0-.00002 0-.00003 0-.00002 0-.00003 0-.00002 0-.00003 0-.00003 0-.00004 0-.00002 0-.00003 0-.00002 0-.00003 0-.00002 0-.00003 0-.00002 0-.00003 0-.00002 0-.00003 0-.00002 0-.00003 0-.00002 0-.00003 0-.00002 0-.00003 0-.00002 0-.00003 0-.00002 0-.00003 0-.00002 0-.00003 0-.00002 0-.00003 0-.00002 0-.00003 0-.00002 0-.00003 0-.00002 0-.00003 0-.00001 0-.00002 0-.00002 0-.00003 0-.00002 0-.00003 0-.00002 0-.00003 0-.00002 0-.00003 0-.00002 0-.00003 0-.00002 0-.00003 0-.00002 0-.00003 0-.00002 0-.00003 0-.00002 0-.00003 0-.00002 0-.00003 0-.00002 0-.00003 0-.00002 0-.00003 0-.00002 0-.00003 0-.00002 0-.00003 0-.00002 0-.00003 0-.00002 0-.00003 0-.00002 0-.00003 0-.00002 0-.00003 0-.00002 0-.00003 0-.00002 0-.00003 0-.00002 0-.00003 0-.00002 0-.00003 0-.00002 0-.00003 0-.00002 0-.00003 0-.00002 0-.00003 0-.00002 0-.00003 0-.00002 0-.00003 0c0 0-.00001 0-.00002 0s-.00002 0-.00003 0-.00002 0-.00003 0-.00002 0-.00003 0-.00002 0-.00003 0-.00002 0-.00003 0-.00002 0-.00003 0-.00002 0-.00003 0-.00002 0-.00003 0-.00002 0-.00003 0-.00002 0-.00003 0-.00002 0-.00003 0-.00002 0-.00003 0-.00002 0-.00003 0-.00002 0-.00003 0c0 0-.00001 0-.00002 0s-.00002 0-.00003 0-.00002 0-.00003 0-.00002 0-.00003 0-.00002 0-.00003 0-.00002 0-.00003 0-.00002 0-.00003 0-.00002 0-.00003 0-.00002 0-.00003 0-.00002 0-.00003 0-.00002 0-.00003 0-.00002 0-.00003 0c0 0-.00001 0-.00002 0s-.00002 0-.00003 0-.00002 0-.00003 0-.00002 0-.00003 0-.00002 0-.00003 0-.00002 0-.00003 0-.00002 0-.00003 0-.00002 0-.00003 0-.00002 0-.00003 0-.00002 0-.00003 0-.00001 0-.00002 0-.00002 0-.00003 0-.00002 0-.00003 0-.00002 0-.00003 0-.00002 0-.00003 0-.00002 0-.00003 0-.00002 0-.00003 0-.00002 0-.00003 0-.00002 0-.00003 0-.00002 0-.00002 0c-.00001 0-.00002 0-.00003 0s-.00002 0-.00003 0-.00002 0-.00003 0-.00002 0-.00003 0-.00002 0-.00003 0-.00002 0-.00003 0-.00002 0-.00003 0-.00002 0-.00003 0c0 0-.00001 0-.00002 0s-.00002 0-.00003 0-.00002 0-.00003 0-.00002 0-.00003 0-.00002 0-.00003 0-.00002 0-.00003 0-.00002 0-.00003 0-.00002 0-.00003 0-.00001 0-.00002 0-.00002 0-.00003 0-.00002 0-.00003 0-.00002 0-.00003 0-.00002 0-.00003 0-.00002 0-.00003 0-.00002 0-.00003 0-.00002 0-.00003 0c0 0-.00001 0-.00002 0s-.00002 0-.00003 0-.00002 0-.00003 0-.00002 0-.00003 0-.00002 0-.00003 0-.00002 0-.00003 0-.00002 0-.00003 0-.00001 0-.00002 0-.00002 0-.00003 0-.00002 0-.00003 0-.00002 0-.00003 0-.00002 0-.00003 0-.00002 0-.00003 0-.00002 0-.00003 0-.00001 0-.00002 0-.00002 0-.00003 0-.00002 0-.00003 0-.00002 0-.00003 0-.00002 0-.00003 0-.00002 0-.00003 0-.00002 0-.00003 0-.00001 0-.00002 0-.00002 0-.00003 0-.00002 0-.00003 0-.00002 0-.00003 0-.00002 0-.00003 0-.00002 0-.00003 0-.00002 0-.00003 0c0 0-.00001 0-.00002 0s-.00002 0-.00003 0-.00002 0-.00003 0-.00002 0-.00003 0-.00002 0-.00003 0-.00002 0-.00003 0-.00002 0-.00002 0c-.00001 0-.00002 0-.00003 0s-.00002 0-.00003 0-.00002 0-.00003 0-.00002 0-.00003 0-.00002 0-.00003 0-.00002 0-.00003 0-.00001 0-.00002 0-.00002 0-.00003 0-.00002 0-.00003 0-.00002 0-.00003 0-.00002 0-.00003 0-.00002 0-.00003 0-.00002 0-.00002 0c-.00001 0-.00002 0-.00003 0s-.00002 0-.00003 0-.00002 0-.00003 0-.00002 0-.00003 0-.00002 0-.00003 0-.00002 0-.00003 0c0 0-.00001 0-.00002 0s-.00002 0-.00003 0-.00002 0-.00003 0-.00002 0-.00003 0-.00002 0-.00003 0-.00002 0-.00003 0-.00001 0-.00002 0-.00002 0-.00003 0-.00002 0-.00003 0-.00002 0-.00003 0-.00002 0-.00003 0-.00002 0-.00003 0-.00002 0-.00002 0c-.00001 0-.00002 0-.00003 0s-.00002 0-.00003 0-.00002 0-.00003 0-.00002 0-.00003 0-.00002 0-.00003 0-.00002 0-.00003 0c0 0-.00001 0-.00002 0s-.00002 0-.00003 0-.00002 0-.00003 0-.00002 0-.00003 0-.00002 0-.00003 0-.00002 0-.00003 0c0 0-.00001 0-.00002 0s-.00002 0-.00003 0-.00002 0-.00003 0-.00002 0-.00003 0-.00002 0-.00003 0-.00002 0-.00003 0-.00001 0-.00002 0-.00002 0-.00003 0-.00002 0-.00003 0-.00002 0-.00003 0-.00002 0-.00003 0-.00002 0-.00003 0-.00002 0-.00002 0c-.00001 0-.00002 0-.00003 0s-.00002 0-.00003 0-.00002 0-.00003 0-.00002 0-.00003 0-.00002 0-.00003 0-.00002 0-.00003 0c0 0-.00001 0-.00002 0s-.00002 0-.00003 0-.00002 0-.00003 0-.00002 0-.00003 0-.00002 0-.00003 0-.00002 0-.00003 0-.00001 0-.00002 0-.00002 0-.00003 0-.00002 0-.00003 0-.00002 0-.00003 0-.00002 0-.00003 0-.00002 0-.00003 0-.00002 0-.00002 0c-.00001 0-.00002 0-.00003 0s-.00002 0-.00003 0-.00002 0-.00003 0-.00002 0-.00003 0-.00002 0-.00003 0-.00002 0-.00003 0-.00001 0-.00002 0-.00002 0-.00003 0-.00002 0-.00003 0-.00002 0-.00003 0-.00002 0-.00003 0-.00002 0-.00003 0-.00002 0-.00002 0c-.00001 0-.00002 0-.00003 0s-.00002 0-.00003 0-.00002 0-.00003 0-.00002 0-.00003 0-.00002 0-.00003 0-.00002 0-.00003 0-.00002 0-.00002 0c-.00001 0-.00002 0-.00003 0s-.00002 0-.00003 0-.00002 0-.00003 0-.00002 0-.00003 0-.00002 0-.00003 0-.00002 0-.00003 0-.00002 0-.00002 0c-.00001 0-.00002 0-.00003 0s-.00002 0-.00003 0-.00002 0-.00003 0-.00002 0-.00003 0-.00002 0-.00003 0-.00002 0-.00003 0-.00002 0-.00002 0c-.00001 0-.00002 0-.00003 0s-.00002 0-.00003 0-.00002 0-.00003 0-.00002 0-.00003 0-.00002 0-.00003 0-.00002 0-.00003 0-.00002 0-.00003 0c0 0-.00001 0-.00002 0s-.00002 0-.00003 0-.00002 0-.00003 0-.00002 0-.00003 0-.00002 0-.00003 0-.00002 0-.00003 0-.00002 0-.00003 0-.00002 0-.00002 0c-.00001 0-.00002 0-.00003 0s-.00002 0-.00003 0-.00002 0-.00003 0-.00002 0-.00003 0-.00002 0-.00003 0-.00002 0-.00003 0-.00002 0-.00003 0-.00002 0-.00003 0c0 0-.00001 0-.00002 0s-.00002 0-.00003 0-.00002 0-.00003 0-.00002 0-.00003 0-.00002 0-.00003 0-.00002 0-.00003 0-.00002 0-.00003 0-.00002 0-.00003 0-.00002 0-.00002 0c-.00001 0-.00002 0-.00003 0s-.00002 0-.00003 0-.00002 0-.00003 0-.00002 0-.00003 0-.00002 0-.00003 0-.00002 0-.00003 0-.00002 0-.00003 0-.00002 0-.00003 0-.00002 0-.00003 0c0 0-.00001 0-.00002 0s-.00002 0-.00003 0-.00002 0-.00003 0-.00002 0-.00003 0-.00002 0-.00003 0-.00002 0-.00003 0-.00002 0-.00003 0-.00002 0-.00003 0-.00002 0-.00003 0-.00002 0-.00003 0-.00001 0-.00002 0-.00002 0-.00003 0-.00002 0-.00003 0-.00002 0-.00003 0-.00002 0-.00003 0-.00002 0-.00003 0-.00002 0-.00003 0-.00002 0-.00003 0-.00002 0-.00003 0-.00002 0-.00003 0-.00002 0-.00003 0-.00002 0-.00003 0-.00001 0-.00002 0-.00002 0-.00003 0-.00002 0-.00003 0-.00002 0-.00003 0-.00002 0-.00003 0-.00002 0-.00003 0-.00002 0-.00003 0-.00002 0-.00003 0-.00002 0-.00003 0-.00002 0-.00003 0-.00002 0-.00003 0-.00002 0-.00003 0-.00002 0-.00003 0-.00002 0-.00003 0-.00002 0-.00003 0-.00001 0-.00002 0-.00002 0-.00003 0-.00002 0-.00003 0-.00002 0-.00003 0-.00002 0-.00003 0-.00002 0-.00003 0-.00002 0-.00003 0-.00002 0-.00003 0-.00002 0-.00003 0-.00002 0-.00003 0-.00002 0-.00003 0-.00002 0-.00003 0-.00002 0-.00003 0-.00002 0-.00003 0-.00002 0-.00003 0-.00002 0-.00003 0-.00002 0-.00003 0-.00002 0-.00003 0-.00002 0-.00003 0-.00002 0-.00003 0-.00002 0-.00003 0-.00002 0-.00003 0-.00002 0-.00003 0-.00002 0-.00003 0-.00002 0-.00003 0-.00002 0-.00003 0-.00002 0-.00003 0-.00002 0-.00003 0-.00002 0-.00003 0-.00002 0-.00003 0-.00002 0-.00003 0-.00002 0-.00003 0-.00001 0-.00002 0-.00002 0-.00003 0-.00002 0-.00003 0-.00002 0-.00003 0-.00002 0-.00003 0-.00002 0-.00003 0-.00003 0-.00004 0-.00002 0-.00003 0-.00002 0-.00003 0-.00002 0-.00003 0-.00002 0-.00003 0-.00002 0-.00003 0-.00002 0-.00003 0-.00002 0-.00003 0-.00002 0-.00003 0-.00002 0-.00003 0-.00002 0-.00003 0-.00002 0-.00003 0-.00002 0-.00003 0-.00002 0-.00003 0-.00002 0-.00003 0-.00002 0-.00003 0-.00002 0-.00003 0-.00002 0-.00003 0-.00002 0-.00003 0-.00002 0-.00003 0-.00002 0-.00003 0-.00002 0-.00003 0-.00002 0-.00003 0-.00002 0-.00003 0-.00002 0-.00003 0-.00002 0-.00003 0-.00002 0-.00003 0-.00002 0-.00003 0-.00002 0-.00003 0-.00002 0-.00003 0-.00003 0-.00004 0-.00002 0-.00003 0-.00002 0-.00003 0-.00002 0-.00003 0-.00002 0-.00003 0-.00002 0-.00003 0-.00002 0-.00003 0-.00002 0-.00003 0-.00002 0-.00003 0-.00002 0-.00003 0-.00002 0-.00003 0-.00002 0-.00003 0-.00002 0-.00003 0-.00003 0-.00004 0-.00002 0-.00003 0-.00002 0-.00003 0-.00002 0-.00003 0-.00002 0-.00003 0-.00002 0-.00003 0-.00002 0-.00003 0-.00002 0-.00003 0-.00002 0-.00003 0-.00002 0-.00003 0c-.00002 0-.00003 0-.00004 0s-.00002 0-.00003 0-.00002 0-.00003 0-.00002 0-.00003 0-.00002 0-.00003 0-.00002 0-.00003 0-.00002 0-.00003 0-.00002 0-.00003 0-.00003 0-.00004 0-.00002 0-.00003 0-.00002 0-.00003 0-.00002 0-.00003 0-.00002 0-.00003 0-.00002 0-.00003 0-.00002 0-.00003 0-.00003 0-.00004 0-.00002 0-.00003 0-.00002 0-.00003 0v.4h.00003.00003.00004.00003.00003.00003.00003.00003.00003.00004.00003.00003.00003.00003.00003.00003.00003.00004.00003.00003.00003.00003.00003.00003.00003.00003.00003.00004.00003.00003.00003.00003.00003.00003.00003.00003.00003.00003.00003.00003.00004.00003.00003.00003.00003.00003.00003.00003.00003.00003.00003.00003.00003.00003.00003.00003.00003.00003.00003.00003.00003.00003.00003.00003.00003.00003.00003.00003.00003.00003.00004.00003.00003.00003.00003.00003.00002.00003.00003.00003.00003.00003.00003.00003.00003.00003.00003.00003.00003.00003.00003.00003.00003.00003.00003.00003.00003.00003.00003.00003.00003.00003.00003.00003.00003.00003.00003.00003.00002.00003.00003.00003.00003.00003.00003.00003.00003.00003.00003.00003.00003.00003.00003.00002.00003.00003.00003.00003.00003.00003.00003.00003.00003.00003.00003.00002.00003.00003.00003.00003.00003.00003.00003.00003.00003.00002.00003.00003.00003.00003.00003.00003.00003.00003.00003.00002.00003.00003.00003.00003.00003.00003.00003.00002.00003.00003.00003.00003.00003.00003.00003.00003.00002.00003.00003.00003.00003.00003.00003.00002.00003.00003.00003.00003.00003.00003.00003.00002.00003.00003.00003.00003.00003.00003.00002.00003.00003.00003.00003.00003.00003.00002.00003.00003.00003.00003.00003.00003.00002.00003.00003.00003.00003.00003.00002.00003.00003.00003.00003.00003.00003.00002.00003.00003.00003.00003.00003.00002.00003.00003.00003.00003.00003.00002.00003.00003.00003.00003.00003.00003.00002.00003.00003.00003.00003.00003.00002.00003.00003.00003.00003.00003.00002.00003.00003.00003.00003.00003.00002.00003.00003.00003.00003.00003.00003.00002.00003.00003.00003.00003.00003.00002.00003.00003.00003.00003.00003.00002.00003.00003.00003.00003.00003.00003.00002.00003.00003.00003.00003.00003.00002.00003.00003.00003.00003.00003.00003.00002.00003.00003.00003.00003.00003.00002.00003.00003.00003.00003.00003.00003.00002.00003.00003.00003.00003.00003.00003.00002.00003.00003.00003.00003.00003.00003.00002.00003.00003.00003.00003.00003.00003.00002.00003.00003.00003.00003.00003.00003.00003.00002.00003.00003.00003.00003.00003.00003.00003.00002.00003.00003.00003.00003.00003.00003.00003.00003.00002.00003.00003.00003.00003.00003.00003.00003.00003.00002.00003.00003.00003.00003.00003.00003.00003.00003.00003.00002.00003.00003.00003.00003.00003.00003.00003.00003.00003.00003.00003.00002.00003.00003.00003.00003.00003.00003.00003.00003.00003.00003.00003.00003.00003.00003.00002.00003.00003.00003.00003.00003.00003.00003.00003.00003.00003.00003.00003.00003.00003.00003.00003.00003.00003.00003.00003.00003.00003.00003.00003.00003.00003.00003.00002.00003.00003.00003.00003.00003.00003.00003.00003.00003.00003.00003.00003.00003.00003.00003.00004.00003.00003.00003.00003.00003.00003.00003.00003.00003.00003.00003.00003.00003.00003.00003.00003.00003.00003.00003.00003.00003.00003.00003.00003.00003.00004.00003.00003.00003.00003.00003.00003.00003.00003.00003.00003.00003.00003.00004.00003.00003.00003.00003.00003.00003.00003.00003.00004.00003.00003.00003.00003.00003.00003.00003.00004.00003.00003.00003.00003.00003.00003.00004.00003.00003zm-.01508 0c-.44574 0-.87692-.46324-.87692-1.11136h-.4c0 .79175.5402 1.51136 1.27692 1.51136zm-.87692-1.11136c0-.648118.43118-1.11135.87692-1.11135v-.4c-.73672 0-1.27692.719608-1.27692 1.51135zm.87692-1.11135h.00003.00003.00004.00003.00003.00003.00003.00003.00003.00004.00003.00003.00003.00003.00003.00003.00003.00004.00003.00003.00003.00003.00003.00003.00003.00003.00003.00004.00003.00003.00003.00003.00003.00003.00003.00003.00003.00003.00003.00003.00004.00003.00003.00003.00003.00003.00003.00003.00003.00003.00003.00003.00003.00003.00003.00003.00003.00003.00003.00003.00003.00003.00003.00003.00003.00003.00003.00003.00003.00003.00004.00003.00003.00003.00003.00003.00002.00003.00003.00003.00003.00003.00003.00003.00003.00003.00003.00003.00003.00003.00003.00003.00003.00003.00003.00003.00003.00003.00003.00003.00003.00003.00003.00003.00003.00003.00003.00003.00002.00003.00003.00003.00003.00003.00003.00003.00003.00003.00003.00003.00003.00003.00003.00002.00003.00003.00003.00003.00003.00003.00003.00003.00003.00003.00003.00002.00003.00003.00003.00003.00003.00003.00003.00003.00003.00002.00003.00003.00003.00003.00003.00003.00003.00003.00003.00002.00003.00003.00003.00003.00003.00003.00003.00002.00003.00003.00003.00003.00003.00003.00003.00003.00002.00003.00003.00003.00003.00003.00003.00002.00003.00003.00003.00003.00003.00003.00003.00002.00003.00003.00003.00003.00003.00003.00002.00003.00003.00003.00003.00003.00003.00002.00003.00003.00003.00003.00003.00003.00002.00003.00003.00003.00003.00003.00002.00003.00003.00003.00003.00003.00003.00002.00003.00003.00003.00003.00003.00002.00003.00003.00003.00003.00003.00002.00003.00003.00003.00003.00003.00003.00002.00003.00003.00003.00003.00003.00002.00003.00003.00003.00003.00003.00002.00003.00003.00003.00003.00003.00002.00003.00003.00003.00003.00003.00003.00002.00003.00003.00003.00003.00003.00002.00003.00003.00003.00003.00003.00002.00003.00003.00003.00003.00003.00003.00002.00003.00003.00003.00003.00003.00002.00003.00003.00003.00003.00003.00003.00002.00003.00003.00003.00003.00003.00002.00003.00003.00003.00003.00003.00003.00002.00003.00003.00003.00003.00003.00003.00002.00003.00003.00003.00003.00003.00003.00002.00003.00003.00003.00003.00003.00003.00002.00003.00003.00003.00003.00003.00003.00003.00002.00003.00003.00003.00003.00003.00003.00003.00002.00003.00003.00003.00003.00003.00003.00003.00003.00002.00003.00003.00003.00003.00003.00003.00003.00003.00002.00003.00003.00003.00003.00003.00003.00003.00003.00003.00002.00003.00003.00003.00003.00003.00003.00003.00003.00003.00003.00003.00002.00003.00003.00003.00003.00003.00003.00003.00003.00003.00003.00003.00003.00003.00003.00002.00003.00003.00003.00003.00003.00003.00003.00003.00003.00003.00003.00003.00003.00003.00003.00003.00003.00003.00003.00003.00003.00003.00003.00003.00003.00003.00003.00002.00003.00003.00003.00003.00003.00003.00003.00003.00003.00003.00003.00003.00003.00003.00003.00004.00003.00003.00003.00003.00003.00003.00003.00003.00003.00003.00003.00003.00003.00003.00003.00003.00003.00003.00003.00003.00003.00003.00003.00003.00003.00004.00003.00003.00003.00003.00003.00003.00003.00003.00003.00003.00003.00003.00004.00003.00003.00003.00003.00003.00003.00003.00003.00004.00003.00003.00003.00003.00003.00003.00003.00004.00003.00003.00003.00003.00003.00003.00004.00003.00003v-.4c-.00001 0-.00002 0-.00003 0s-.00002 0-.00003 0c-.00002 0-.00003 0-.00004 0s-.00002 0-.00003 0-.00002 0-.00003 0-.00002 0-.00003 0-.00002 0-.00003 0-.00002 0-.00003 0-.00002 0-.00003 0c-.00002 0-.00003 0-.00004 0s-.00002 0-.00003 0-.00002 0-.00003 0-.00002 0-.00003 0-.00002 0-.00003 0-.00002 0-.00003 0-.00002 0-.00003 0-.00002 0-.00003 0c-.00002 0-.00003 0-.00004 0s-.00002 0-.00003 0-.00002 0-.00003 0-.00002 0-.00003 0-.00002 0-.00003 0-.00002 0-.00003 0-.00002 0-.00003 0-.00002 0-.00003 0-.00002 0-.00003 0-.00002 0-.00004 0c-.00001 0-.00002 0-.00003 0s-.00002 0-.00003 0-.00002 0-.00003 0-.00002 0-.00003 0-.00002 0-.00003 0-.00002 0-.00003 0-.00002 0-.00003 0-.00002 0-.00003 0-.00002 0-.00003 0-.00002 0-.00003 0-.00002 0-.00003 0-.00002 0-.00003 0-.00002 0-.00004 0c-.00001 0-.00002 0-.00003 0s-.00002 0-.00003 0-.00002 0-.00003 0-.00002 0-.00003 0-.00002 0-.00003 0-.00002 0-.00003 0-.00002 0-.00003 0-.00002 0-.00003 0-.00002 0-.00003 0-.00002 0-.00003 0-.00002 0-.00003 0-.00002 0-.00003 0-.00002 0-.00003 0-.00002 0-.00003 0-.00002 0-.00003 0-.00002 0-.00003 0-.00002 0-.00003 0-.00002 0-.00003 0-.00002 0-.00003 0-.00002 0-.00003 0-.00002 0-.00003 0-.00002 0-.00003 0-.00002 0-.00003 0-.00002 0-.00003 0-.00002 0-.00003 0-.00003 0-.00004 0-.00002 0-.00003 0-.00002 0-.00003 0-.00002 0-.00003 0-.00002 0-.00003 0-.00002 0-.00003 0-.00002 0-.00003 0-.00002 0-.00003 0-.00002 0-.00003 0-.00002 0-.00003 0-.00002 0-.00003 0-.00002 0-.00003 0-.00002 0-.00003 0-.00002 0-.00003 0-.00002 0-.00003 0-.00002 0-.00003 0-.00001 0-.00002 0-.00002 0-.00003 0-.00002 0-.00003 0-.00002 0-.00003 0-.00002 0-.00003 0-.00002 0-.00003 0-.00002 0-.00003 0-.00002 0-.00003 0-.00002 0-.00003 0-.00002 0-.00003 0-.00002 0-.00003 0-.00002 0-.00003 0-.00002 0-.00003 0-.00002 0-.00003 0-.00002 0-.00003 0-.00002 0-.00003 0-.00002 0-.00003 0-.00002 0-.00003 0-.00002 0-.00003 0-.00002 0-.00003 0-.00002 0-.00003 0-.00002 0-.00003 0-.00002 0-.00003 0-.00002 0-.00003 0-.00002 0-.00003 0-.00002 0-.00003 0-.00002 0-.00003 0-.00002 0-.00003 0c0 0-.00001 0-.00002 0s-.00002 0-.00003 0-.00002 0-.00003 0-.00002 0-.00003 0-.00002 0-.00003 0-.00002 0-.00003 0-.00002 0-.00003 0-.00002 0-.00003 0-.00002 0-.00003 0-.00002 0-.00003 0-.00002 0-.00003 0-.00002 0-.00003 0-.00002 0-.00003 0-.00002 0-.00003 0-.00002 0-.00003 0c0 0-.00001 0-.00002 0s-.00002 0-.00003 0-.00002 0-.00003 0-.00002 0-.00003 0-.00002 0-.00003 0-.00002 0-.00003 0-.00002 0-.00003 0-.00002 0-.00003 0-.00002 0-.00003 0-.00002 0-.00003 0-.00002 0-.00003 0-.00002 0-.00003 0c0 0-.00001 0-.00002 0s-.00002 0-.00003 0-.00002 0-.00003 0-.00002 0-.00003 0-.00002 0-.00003 0-.00002 0-.00003 0-.00002 0-.00003 0-.00002 0-.00003 0-.00002 0-.00003 0-.00002 0-.00003 0-.00001 0-.00002 0-.00002 0-.00003 0-.00002 0-.00003 0-.00002 0-.00003 0-.00002 0-.00003 0-.00002 0-.00003 0-.00002 0-.00003 0-.00002 0-.00003 0-.00002 0-.00003 0-.00002 0-.00002 0c-.00001 0-.00002 0-.00003 0s-.00002 0-.00003 0-.00002 0-.00003 0-.00002 0-.00003 0-.00002 0-.00003 0-.00002 0-.00003 0-.00002 0-.00003 0-.00002 0-.00003 0c0 0-.00001 0-.00002 0s-.00002 0-.00003 0-.00002 0-.00003 0-.00002 0-.00003 0-.00002 0-.00003 0-.00002 0-.00003 0-.00002 0-.00003 0-.00002 0-.00003 0-.00001 0-.00002 0-.00002 0-.00003 0-.00002 0-.00003 0-.00002 0-.00003 0-.00002 0-.00003 0-.00002 0-.00003 0-.00002 0-.00003 0-.00002 0-.00003 0c0 0-.00001 0-.00002 0s-.00002 0-.00003 0-.00002 0-.00003 0-.00002 0-.00003 0-.00002 0-.00003 0-.00002 0-.00003 0-.00002 0-.00003 0-.00001 0-.00002 0-.00002 0-.00003 0-.00002 0-.00003 0-.00002 0-.00003 0-.00002 0-.00003 0-.00002 0-.00003 0-.00002 0-.00003 0-.00001 0-.00002 0-.00002 0-.00003 0-.00002 0-.00003 0-.00002 0-.00003 0-.00002 0-.00003 0-.00002 0-.00003 0-.00002 0-.00003 0-.00001 0-.00002 0-.00002 0-.00003 0-.00002 0-.00003 0-.00002 0-.00003 0-.00002 0-.00003 0-.00002 0-.00003 0-.00002 0-.00003 0c0 0-.00001 0-.00002 0s-.00002 0-.00003 0-.00002 0-.00003 0-.00002 0-.00003 0-.00002 0-.00003 0-.00002 0-.00003 0-.00002 0-.00002 0c-.00001 0-.00002 0-.00003 0s-.00002 0-.00003 0-.00002 0-.00003 0-.00002 0-.00003 0-.00002 0-.00003 0-.00002 0-.00003 0-.00001 0-.00002 0-.00002 0-.00003 0-.00002 0-.00003 0-.00002 0-.00003 0-.00002 0-.00003 0-.00002 0-.00003 0-.00002 0-.00002 0c-.00001 0-.00002 0-.00003 0s-.00002 0-.00003 0-.00002 0-.00003 0-.00002 0-.00003 0-.00002 0-.00003 0-.00002 0-.00003 0c0 0-.00001 0-.00002 0s-.00002 0-.00003 0-.00002 0-.00003 0-.00002 0-.00003 0-.00002 0-.00003 0-.00002 0-.00003 0-.00001 0-.00002 0-.00002 0-.00003 0-.00002 0-.00003 0-.00002 0-.00003 0-.00002 0-.00003 0-.00002 0-.00003 0-.00002 0-.00002 0c-.00001 0-.00002 0-.00003 0s-.00002 0-.00003 0-.00002 0-.00003 0-.00002 0-.00003 0-.00002 0-.00003 0-.00002 0-.00003 0c0 0-.00001 0-.00002 0s-.00002 0-.00003 0-.00002 0-.00003 0-.00002 0-.00003 0-.00002 0-.00003 0-.00002 0-.00003 0c0 0-.00001 0-.00002 0s-.00002 0-.00003 0-.00002 0-.00003 0-.00002 0-.00003 0-.00002 0-.00003 0-.00002 0-.00003 0-.00001 0-.00002 0-.00002 0-.00003 0-.00002 0-.00003 0-.00002 0-.00003 0-.00002 0-.00003 0-.00002 0-.00003 0-.00002 0-.00002 0c-.00001 0-.00002 0-.00003 0s-.00002 0-.00003 0-.00002 0-.00003 0-.00002 0-.00003 0-.00002 0-.00003 0-.00002 0-.00003 0c0 0-.00001 0-.00002 0s-.00002 0-.00003 0-.00002 0-.00003 0-.00002 0-.00003 0-.00002 0-.00003 0-.00002 0-.00003 0-.00001 0-.00002 0-.00002 0-.00003 0-.00002 0-.00003 0-.00002 0-.00003 0-.00002 0-.00003 0-.00002 0-.00003 0-.00002 0-.00002 0c-.00001 0-.00002 0-.00003 0s-.00002 0-.00003 0-.00002 0-.00003 0-.00002 0-.00003 0-.00002 0-.00003 0-.00002 0-.00003 0-.00001 0-.00002 0-.00002 0-.00003 0-.00002 0-.00003 0-.00002 0-.00003 0-.00002 0-.00003 0-.00002 0-.00003 0-.00002 0-.00002 0c-.00001 0-.00002 0-.00003 0s-.00002 0-.00003 0-.00002 0-.00003 0-.00002 0-.00003 0-.00002 0-.00003 0-.00002 0-.00003 0-.00002 0-.00002 0c-.00001 0-.00002 0-.00003 0s-.00002 0-.00003 0-.00002 0-.00003 0-.00002 0-.00003 0-.00002 0-.00003 0-.00002 0-.00003 0-.00002 0-.00002 0c-.00001 0-.00002 0-.00003 0s-.00002 0-.00003 0-.00002 0-.00003 0-.00002 0-.00003 0-.00002 0-.00003 0-.00002 0-.00003 0-.00002 0-.00002 0c-.00001 0-.00002 0-.00003 0s-.00002 0-.00003 0-.00002 0-.00003 0-.00002 0-.00003 0-.00002 0-.00003 0-.00002 0-.00003 0-.00002 0-.00003 0c0 0-.00001 0-.00002 0s-.00002 0-.00003 0-.00002 0-.00003 0-.00002 0-.00003 0-.00002 0-.00003 0-.00002 0-.00003 0-.00002 0-.00003 0-.00002 0-.00002 0c-.00001 0-.00002 0-.00003 0s-.00002 0-.00003 0-.00002 0-.00003 0-.00002 0-.00003 0-.00002 0-.00003 0-.00002 0-.00003 0-.00002 0-.00003 0-.00002 0-.00003 0c0 0-.00001 0-.00002 0s-.00002 0-.00003 0-.00002 0-.00003 0-.00002 0-.00003 0-.00002 0-.00003 0-.00002 0-.00003 0-.00002 0-.00003 0-.00002 0-.00003 0-.00002 0-.00002 0c-.00001 0-.00002 0-.00003 0s-.00002 0-.00003 0-.00002 0-.00003 0-.00002 0-.00003 0-.00002 0-.00003 0-.00002 0-.00003 0-.00002 0-.00003 0-.00002 0-.00003 0-.00002 0-.00003 0c0 0-.00001 0-.00002 0s-.00002 0-.00003 0-.00002 0-.00003 0-.00002 0-.00003 0-.00002 0-.00003 0-.00002 0-.00003 0-.00002 0-.00003 0-.00002 0-.00003 0-.00002 0-.00003 0-.00002 0-.00003 0-.00001 0-.00002 0-.00002 0-.00003 0-.00002 0-.00003 0-.00002 0-.00003 0-.00002 0-.00003 0-.00002 0-.00003 0-.00002 0-.00003 0-.00002 0-.00003 0-.00002 0-.00003 0-.00002 0-.00003 0-.00002 0-.00003 0-.00002 0-.00003 0-.00001 0-.00002 0-.00002 0-.00003 0-.00002 0-.00003 0-.00002 0-.00003 0-.00002 0-.00003 0-.00002 0-.00003 0-.00002 0-.00003 0-.00002 0-.00003 0-.00002 0-.00003 0-.00002 0-.00003 0-.00002 0-.00003 0-.00002 0-.00003 0-.00002 0-.00003 0-.00002 0-.00003 0-.00002 0-.00003 0-.00001 0-.00002 0-.00002 0-.00003 0-.00002 0-.00003 0-.00002 0-.00003 0-.00002 0-.00003 0-.00002 0-.00003 0-.00002 0-.00003 0-.00002 0-.00003 0-.00002 0-.00003 0-.00002 0-.00003 0-.00002 0-.00003 0-.00002 0-.00003 0-.00002 0-.00003 0-.00002 0-.00003 0-.00002 0-.00003 0-.00002 0-.00003 0-.00002 0-.00003 0-.00002 0-.00003 0-.00002 0-.00003 0-.00002 0-.00003 0-.00002 0-.00003 0-.00002 0-.00003 0-.00002 0-.00003 0-.00002 0-.00003 0-.00002 0-.00003 0-.00002 0-.00003 0-.00002 0-.00003 0-.00002 0-.00003 0-.00002 0-.00003 0-.00002 0-.00003 0-.00002 0-.00003 0-.00002 0-.00003 0-.00001 0-.00002 0-.00002 0-.00003 0-.00002 0-.00003 0-.00002 0-.00003 0-.00002 0-.00003 0-.00002 0-.00003 0-.00003 0-.00004 0-.00002 0-.00003 0-.00002 0-.00003 0-.00002 0-.00003 0-.00002 0-.00003 0-.00002 0-.00003 0-.00002 0-.00003 0-.00002 0-.00003 0-.00002 0-.00003 0-.00002 0-.00003 0-.00002 0-.00003 0-.00002 0-.00003 0-.00002 0-.00003 0-.00002 0-.00003 0-.00002 0-.00003 0-.00002 0-.00003 0-.00002 0-.00003 0-.00002 0-.00003 0-.00002 0-.00003 0-.00002 0-.00003 0-.00002 0-.00003 0-.00002 0-.00003 0-.00002 0-.00003 0-.00002 0-.00003 0-.00002 0-.00003 0-.00002 0-.00003 0-.00002 0-.00003 0-.00002 0-.00003 0-.00002 0-.00003 0-.00002 0-.00003 0-.00003 0-.00004 0-.00002 0-.00003 0-.00002 0-.00003 0-.00002 0-.00003 0-.00002 0-.00003 0-.00002 0-.00003 0-.00002 0-.00003 0-.00002 0-.00003 0-.00002 0-.00003 0-.00002 0-.00003 0-.00002 0-.00003 0-.00002 0-.00003 0-.00002 0-.00003 0-.00003 0-.00004 0-.00002 0-.00003 0-.00002 0-.00003 0-.00002 0-.00003 0-.00002 0-.00003 0-.00002 0-.00003 0-.00002 0-.00003 0-.00002 0-.00003 0-.00002 0-.00003 0-.00002 0-.00003 0c-.00002 0-.00003 0-.00004 0s-.00002 0-.00003 0-.00002 0-.00003 0-.00002 0-.00003 0-.00002 0-.00003 0-.00002 0-.00003 0-.00002 0-.00003 0-.00002 0-.00003 0-.00003 0-.00004 0-.00002 0-.00003 0-.00002 0-.00003 0-.00002 0-.00003 0-.00002 0-.00003 0-.00002 0-.00003 0-.00002 0-.00003 0-.00003 0-.00004 0-.00002 0-.00003 0-.00002 0-.00003 0zm.01508 0h17.23079v-.4h-17.23079zm17.23079 0c.4457 0 .8769.463232.8769 1.11135h.4c0-.791742-.5402-1.51135-1.2769-1.51135zm.8769 1.11135v5.24541h.4v-5.24541zm0 5.24541c0 .64812-.4312 1.11136-.8769 1.11136v.4c.7367 0 1.2769-.71961 1.2769-1.51136zm-.8769 1.11136h-.0022v.4h.0022zm-.0022 0c-.7507 0-1.2747.69993-1.2747 1.50873h.4c0-.66517.415-1.10873.8747-1.10873zm-1.2747 1.50873v.00262h.4v-.00262zm0 .00262c0 .81272.5229 1.51133 1.2769 1.51133v-.4c-.463 0-.8769-.44223-.8769-1.11133zm1.2769 1.51133c.4457 0 .8769.4633.8769 1.1114h.4c0-.7918-.5402-1.5114-1.2769-1.5114zm.8769 1.1114v5.2454h.4v-5.2454zm0 5.2454c0 .6481-.4312 1.1113-.8769 1.1113v.4c.7367 0 1.2769-.7196 1.2769-1.5113zm-.8769 1.1113h-1.0769v.4h1.0769zm-1.2769.2v1.3114h.4v-1.3114zm0 1.3114v.0001.0001.0001.0001.0001.0001.0001.0001.0001.0001.0001.0001.0001.0001.0001.0001.0001.0001.0001.0001.0001.0001.0001.0001.0001.0001.0001.0001.0001.0001.0001.0001.0001.0001.0001.0001.0001.0001.0001.0001.0001.0001.0001.0001.0001.0001.0001.0001.0001.0001.0001.0001.0001.0001.0001.0001.0001.0001.0001.0001.0001.0001.0001.0001.0001.0001.0001.0001.0001.0001.0001.0001.0001.0001.0001.0001.0001.0001.0001.0001.0001.0001.0001.0001.0001.0001.0001.0001.0001.0001.0001.0001.0001.0001.0001.0001.0001.0001.0001.0001.0001.0001.0001.0001.0001.0001.0001.0001.0001.0001.0001.0001.0001.0001.0001.0001.0001.0001.0001.0001.0001.0001.0001.0001.0001.0001.0001.0001.0001.0001.0001.0001.0001.0001.0001.0001.0001.0001.0001.0001.0001.0001.0001.0001.0001.0001.0001.0001.0001.0001.0001.0001.0001.0001.0001.0001.0001.0001.0001.0001.0001.0001.0001.0001.0001.0001.0001.0001.0001.0001.0001.0001.0001.0001.0001.0001.0001.0001.0001.0001.0001.0001.0001h.4v-.0001c0-.0001 0-.0001 0-.0001s0 0 0-.0001v-.0001c0-.0001 0-.0001 0-.0001v-.0001c0-.0001 0-.0001 0-.0001s0 0 0-.0001v-.0001c0-.0001 0-.0001 0-.0001s0 0 0-.0001v-.0001c0-.0001 0-.0001 0-.0001s0 0 0-.0001v-.0001c0-.0001 0-.0001 0-.0001s0 0 0-.0001v-.0001c0-.0001 0-.0001 0-.0001 0-.0001 0-.0001 0-.0001s0 0 0-.0001v-.0001c0-.0001 0-.0001 0-.0001s0 0 0-.0001v-.0001c0-.0001 0-.0001 0-.0001 0-.0001 0-.0001 0-.0001s0 0 0-.0001v-.0001c0-.0001 0-.0001 0-.0001 0-.0001 0-.0001 0-.0001s0 0 0-.0001v-.0001c0-.0001 0-.0001 0-.0001 0-.0001 0-.0001 0-.0001s0 0 0-.0001v-.0001-.0001c0-.0001 0-.0001 0-.0001s0 0 0-.0001 0 0 0-.0001v-.0001-.0001c0-.0001 0-.0001 0-.0001s0 0 0-.0001 0 0 0-.0001v-.0001-.0001c0-.0001 0-.0001 0-.0001 0-.0001 0-.0001 0-.0001s0 0 0-.0001 0 0 0-.0001v-.0001-.0001c0-.0001 0-.0001 0-.0001 0-.0001 0-.0001 0-.0001s0 0 0-.0001 0 0 0-.0001v-.0001-.0001c0-.0001 0-.0001 0-.0001 0-.0001 0-.0001 0-.0001s0 0 0-.0001 0 0 0-.0001 0 0 0-.0001v-.0001-.0001c0-.0001 0-.0001 0-.0001 0-.0001 0-.0001 0-.0001 0-.0001 0-.0001 0-.0001s0 0 0-.0001 0 0 0-.0001 0 0 0-.0001v-.0001-.0001c0-.0001 0-.0001 0-.0001 0-.0001 0-.0001 0-.0001 0-.0001 0-.0001 0-.0001s0 0 0-.0001 0 0 0-.0001 0 0 0-.0001v-.0001-.0001-.0001c0-.0001 0-.0001 0-.0001 0-.0001 0-.0001 0-.0001 0-.0001 0-.0001 0-.0001s0 0 0-.0001 0 0 0-.0001 0 0 0-.0001v-.0001-.0001-.0001c0-.0001 0-.0001 0-.0001 0-.0001 0-.0001 0-.0001 0-.0001 0-.0001 0-.0001s0 0 0-.0001 0 0 0-.0001 0 0 0-.0001 0 0 0-.0001v-.0001-.0001c0-.0001 0-.0001 0-.0001 0-.0001 0-.0001 0-.0001 0-.0001 0-.0001 0-.0001s0 0 0-.0001 0 0 0-.0001 0 0 0-.0001v-.0001-.0001-.0001c0-.0001 0-.0001 0-.0001 0-.0001 0-.0001 0-.0001 0-.0001 0-.0001 0-.0001s0 0 0-.0001 0 0 0-.0001v-.0001-.0001-.0001c0-.0001 0-.0001 0-.0001 0-.0001 0-.0001 0-.0001s0 0 0-.0001 0 0 0-.0001v-.0001-.0001c0-.0001 0-.0001 0-.0001 0-.0001 0-.0001 0-.0001 0-.0001 0-.0001 0-.0001s0 0 0-.0001 0 0 0-.0001v-.0001-.0001c0-.0001 0-.0001 0-.0001 0-.0001 0-.0001 0-.0001s0 0 0-.0001v-.0001-.0001c0-.0001 0-.0001 0-.0001 0-.0001 0-.0001 0-.0001s0 0 0-.0001 0 0 0-.0001v-.0001c0-.0001 0-.0001 0-.0001 0-.0001 0-.0001 0-.0001s0 0 0-.0001v-.0001-.0001c0-.0001 0-.0001 0-.0001s0 0 0-.0001 0 0 0-.0001v-.0001c0-.0001 0-.0001 0-.0001s0 0 0-.0001 0 0 0-.0001v-.0001c0-.0001 0-.0001 0-.0001s0 0 0-.0001 0 0 0-.0001v-.0001c0-.0001 0-.0001 0-.0001s0 0 0-.0001v-.0001c0-.0001 0-.0001 0-.0001s0 0 0-.0001 0 0 0-.0001v-.0001c0-.0001 0-.0001 0-.0001s0 0 0-.0001v-.0001c0-.0001 0-.0001 0-.0001s0 0 0-.0001v-.0001c0-.0001 0-.0001 0-.0001s0 0 0-.0001v-.0001c0-.0001 0-.0001 0-.0001s0 0 0-.0001c0-.0001 0-.0001 0-.0001s0 0 0-.0001v-.0001c0-.0001 0-.0001 0-.0001s0 0 0-.0001v-.0001zm0 .0183c0 .6482-.4312 1.1114-.877 1.1114v.4c.7368 0 1.277-.7196 1.277-1.5114zm-.877 1.1114c-.4457 0-.8769-.4632-.8769-1.1114h-.4c0 .7918.5402 1.5114 1.2769 1.5114zm-.8769-1.1114v-.0001c0-.0001 0-.0001 0-.0001s0 0 0-.0001v-.0001c0-.0001 0-.0001 0-.0001v-.0001c0-.0001 0-.0001 0-.0001s0 0 0-.0001v-.0001c0-.0001 0-.0001 0-.0001s0 0 0-.0001v-.0001c0-.0001 0-.0001 0-.0001s0 0 0-.0001v-.0001c0-.0001 0-.0001 0-.0001s0 0 0-.0001v-.0001c0-.0001 0-.0001 0-.0001 0-.0001 0-.0001 0-.0001s0 0 0-.0001v-.0001c0-.0001 0-.0001 0-.0001s0 0 0-.0001v-.0001c0-.0001 0-.0001 0-.0001 0-.0001 0-.0001 0-.0001s0 0 0-.0001v-.0001c0-.0001 0-.0001 0-.0001 0-.0001 0-.0001 0-.0001s0 0 0-.0001v-.0001c0-.0001 0-.0001 0-.0001 0-.0001 0-.0001 0-.0001s0 0 0-.0001v-.0001-.0001c0-.0001 0-.0001 0-.0001s0 0 0-.0001 0 0 0-.0001v-.0001-.0001c0-.0001 0-.0001 0-.0001s0 0 0-.0001 0 0 0-.0001v-.0001-.0001c0-.0001 0-.0001 0-.0001 0-.0001 0-.0001 0-.0001s0 0 0-.0001 0 0 0-.0001v-.0001-.0001c0-.0001 0-.0001 0-.0001 0-.0001 0-.0001 0-.0001s0 0 0-.0001 0 0 0-.0001v-.0001-.0001c0-.0001 0-.0001 0-.0001 0-.0001 0-.0001 0-.0001s0 0 0-.0001 0 0 0-.0001 0 0 0-.0001v-.0001-.0001c0-.0001 0-.0001 0-.0001 0-.0001 0-.0001 0-.0001 0-.0001 0-.0001 0-.0001s0 0 0-.0001 0 0 0-.0001 0 0 0-.0001v-.0001-.0001c0-.0001 0-.0001 0-.0001 0-.0001 0-.0001 0-.0001 0-.0001 0-.0001 0-.0001s0 0 0-.0001 0 0 0-.0001 0 0 0-.0001v-.0001-.0001-.0001c0-.0001 0-.0001 0-.0001 0-.0001 0-.0001 0-.0001 0-.0001 0-.0001 0-.0001s0 0 0-.0001 0 0 0-.0001 0 0 0-.0001v-.0001-.0001-.0001c0-.0001 0-.0001 0-.0001 0-.0001 0-.0001 0-.0001 0-.0001 0-.0001 0-.0001s0 0 0-.0001 0 0 0-.0001 0 0 0-.0001 0 0 0-.0001v-.0001-.0001c0-.0001 0-.0001 0-.0001 0-.0001 0-.0001 0-.0001 0-.0001 0-.0001 0-.0001s0 0 0-.0001 0 0 0-.0001 0 0 0-.0001v-.0001-.0001-.0001c0-.0001 0-.0001 0-.0001 0-.0001 0-.0001 0-.0001 0-.0001 0-.0001 0-.0001s0 0 0-.0001 0 0 0-.0001v-.0001-.0001-.0001c0-.0001 0-.0001 0-.0001 0-.0001 0-.0001 0-.0001s0 0 0-.0001 0 0 0-.0001v-.0001-.0001c0-.0001 0-.0001 0-.0001 0-.0001 0-.0001 0-.0001 0-.0001 0-.0001 0-.0001s0 0 0-.0001 0 0 0-.0001v-.0001-.0001c0-.0001 0-.0001 0-.0001 0-.0001 0-.0001 0-.0001s0 0 0-.0001v-.0001-.0001c0-.0001 0-.0001 0-.0001 0-.0001 0-.0001 0-.0001s0 0 0-.0001 0 0 0-.0001v-.0001c0-.0001 0-.0001 0-.0001 0-.0001 0-.0001 0-.0001s0 0 0-.0001v-.0001-.0001c0-.0001 0-.0001 0-.0001s0 0 0-.0001 0 0 0-.0001v-.0001c0-.0001 0-.0001 0-.0001s0 0 0-.0001 0 0 0-.0001v-.0001c0-.0001 0-.0001 0-.0001s0 0 0-.0001 0 0 0-.0001v-.0001c0-.0001 0-.0001 0-.0001s0 0 0-.0001v-.0001c0-.0001 0-.0001 0-.0001s0 0 0-.0001 0 0 0-.0001v-.0001c0-.0001 0-.0001 0-.0001s0 0 0-.0001v-.0001c0-.0001 0-.0001 0-.0001s0 0 0-.0001v-.0001c0-.0001 0-.0001 0-.0001s0 0 0-.0001v-.0001c0-.0001 0-.0001 0-.0001s0 0 0-.0001c0-.0001 0-.0001 0-.0001s0 0 0-.0001v-.0001c0-.0001 0-.0001 0-.0001s0 0 0-.0001v-.0001h-.4v.0001.0001.0001.0001.0001.0001.0001.0001.0001.0001.0001.0001.0001.0001.0001.0001.0001.0001.0001.0001.0001.0001.0001.0001.0001.0001.0001.0001.0001.0001.0001.0001.0001.0001.0001.0001.0001.0001.0001.0001.0001.0001.0001.0001.0001.0001.0001.0001.0001.0001.0001.0001.0001.0001.0001.0001.0001.0001.0001.0001.0001.0001.0001.0001.0001.0001.0001.0001.0001.0001.0001.0001.0001.0001.0001.0001.0001.0001.0001.0001.0001.0001.0001.0001.0001.0001.0001.0001.0001.0001.0001.0001.0001.0001.0001.0001.0001.0001.0001.0001.0001.0001.0001.0001.0001.0001.0001.0001.0001.0001.0001.0001.0001.0001.0001.0001.0001.0001.0001.0001.0001.0001.0001.0001.0001.0001.0001.0001.0001.0001.0001.0001.0001.0001.0001.0001.0001.0001.0001.0001.0001.0001.0001.0001.0001.0001.0001.0001.0001.0001.0001.0001.0001.0001.0001.0001.0001.0001.0001.0001.0001.0001.0001.0001.0001.0001.0001.0001.0001.0001.0001.0001.0001.0001.0001.0001.0001.0001.0001.0001.0001.0001.0001zm0-.0183v-1.3114h-.4v1.3114zm-.2-1.5114h-2.1538v.4h2.1538zm-2.3538.2v1.3114h.4v-1.3114zm0 1.3114v.0001.0001.0001.0001.0001.0001.0001.0001.0001.0001.0001.0001.0001.0001.0001.0001.0001.0001.0001.0001.0001.0001.0001.0001.0001.0001.0001.0001.0001.0001.0001.0001.0001.0001.0001.0001.0001.0001.0001.0001.0001.0001.0001.0001.0001.0001.0001.0001.0001.0001.0001.0001.0001.0001.0001.0001.0001.0001.0001.0001.0001.0001.0001.0001.0001.0001.0001.0001.0001.0001.0001.0001.0001.0001.0001.0001.0001.0001.0001.0001.0001.0001.0001.0001.0001.0001.0001.0001.0001.0001.0001.0001.0001.0001.0001.0001.0001.0001.0001.0001.0001.0001.0001.0001.0001.0001.0001.0001.0001.0001.0001.0001.0001.0001.0001.0001.0001.0001.0001.0001.0001.0001.0001.0001.0001.0001.0001.0001.0001.0001.0001.0001.0001.0001.0001.0001.0001.0001.0001.0001.0001.0001.0001.0001.0001.0001.0001.0001.0001.0001.0001.0001.0001.0001.0001.0001.0001.0001.0001.0001.0001.0001.0001.0001.0001.0001.0001.0001.0001.0001.0001.0001.0001.0001.0001.0001.0001.0001.0001.0001.0001.0001.0001h.4v-.0001c0-.0001 0-.0001 0-.0001s0 0 0-.0001v-.0001c0-.0001 0-.0001 0-.0001v-.0001c0-.0001 0-.0001 0-.0001s0 0 0-.0001v-.0001c0-.0001 0-.0001 0-.0001s0 0 0-.0001v-.0001c0-.0001 0-.0001 0-.0001s0 0 0-.0001v-.0001c0-.0001 0-.0001 0-.0001s0 0 0-.0001v-.0001c0-.0001 0-.0001 0-.0001 0-.0001 0-.0001 0-.0001s0 0 0-.0001v-.0001c0-.0001 0-.0001 0-.0001s0 0 0-.0001v-.0001c0-.0001 0-.0001 0-.0001 0-.0001 0-.0001 0-.0001s0 0 0-.0001v-.0001c0-.0001 0-.0001 0-.0001 0-.0001 0-.0001 0-.0001s0 0 0-.0001v-.0001c0-.0001 0-.0001 0-.0001 0-.0001 0-.0001 0-.0001s0 0 0-.0001v-.0001-.0001c0-.0001 0-.0001 0-.0001s0 0 0-.0001 0 0 0-.0001v-.0001-.0001c0-.0001 0-.0001 0-.0001s0 0 0-.0001 0 0 0-.0001v-.0001-.0001c0-.0001 0-.0001 0-.0001 0-.0001 0-.0001 0-.0001s0 0 0-.0001 0 0 0-.0001v-.0001-.0001c0-.0001 0-.0001 0-.0001 0-.0001 0-.0001 0-.0001s0 0 0-.0001 0 0 0-.0001v-.0001-.0001c0-.0001 0-.0001 0-.0001 0-.0001 0-.0001 0-.0001s0 0 0-.0001 0 0 0-.0001 0 0 0-.0001v-.0001-.0001c0-.0001 0-.0001 0-.0001 0-.0001 0-.0001 0-.0001 0-.0001 0-.0001 0-.0001s0 0 0-.0001 0 0 0-.0001 0 0 0-.0001v-.0001-.0001c0-.0001 0-.0001 0-.0001 0-.0001 0-.0001 0-.0001 0-.0001 0-.0001 0-.0001s0 0 0-.0001 0 0 0-.0001 0 0 0-.0001v-.0001-.0001-.0001c0-.0001 0-.0001 0-.0001 0-.0001 0-.0001 0-.0001 0-.0001 0-.0001 0-.0001s0 0 0-.0001 0 0 0-.0001 0 0 0-.0001v-.0001-.0001-.0001c0-.0001 0-.0001 0-.0001 0-.0001 0-.0001 0-.0001 0-.0001 0-.0001 0-.0001s0 0 0-.0001 0 0 0-.0001 0 0 0-.0001 0 0 0-.0001v-.0001-.0001c0-.0001 0-.0001 0-.0001 0-.0001 0-.0001 0-.0001 0-.0001 0-.0001 0-.0001s0 0 0-.0001 0 0 0-.0001 0 0 0-.0001v-.0001-.0001-.0001c0-.0001 0-.0001 0-.0001 0-.0001 0-.0001 0-.0001 0-.0001 0-.0001 0-.0001s0 0 0-.0001 0 0 0-.0001v-.0001-.0001-.0001c0-.0001 0-.0001 0-.0001 0-.0001 0-.0001 0-.0001s0 0 0-.0001 0 0 0-.0001v-.0001-.0001c0-.0001 0-.0001 0-.0001 0-.0001 0-.0001 0-.0001 0-.0001 0-.0001 0-.0001s0 0 0-.0001 0 0 0-.0001v-.0001-.0001c0-.0001 0-.0001 0-.0001 0-.0001 0-.0001 0-.0001s0 0 0-.0001v-.0001-.0001c0-.0001 0-.0001 0-.0001 0-.0001 0-.0001 0-.0001s0 0 0-.0001 0 0 0-.0001v-.0001c0-.0001 0-.0001 0-.0001 0-.0001 0-.0001 0-.0001s0 0 0-.0001v-.0001-.0001c0-.0001 0-.0001 0-.0001s0 0 0-.0001 0 0 0-.0001v-.0001c0-.0001 0-.0001 0-.0001s0 0 0-.0001 0 0 0-.0001v-.0001c0-.0001 0-.0001 0-.0001s0 0 0-.0001 0 0 0-.0001v-.0001c0-.0001 0-.0001 0-.0001s0 0 0-.0001v-.0001c0-.0001 0-.0001 0-.0001s0 0 0-.0001 0 0 0-.0001v-.0001c0-.0001 0-.0001 0-.0001s0 0 0-.0001v-.0001c0-.0001 0-.0001 0-.0001s0 0 0-.0001v-.0001c0-.0001 0-.0001 0-.0001s0 0 0-.0001v-.0001c0-.0001 0-.0001 0-.0001s0 0 0-.0001c0-.0001 0-.0001 0-.0001s0 0 0-.0001v-.0001c0-.0001 0-.0001 0-.0001s0 0 0-.0001v-.0001zm0 .0183c0 .6482-.4312 1.1114-.877 1.1114v.4c.7368 0 1.277-.7196 1.277-1.5114zm-.877 1.1114c-.4457 0-.8769-.4632-.8769-1.1114h-.4c0 .7918.5402 1.5114 1.2769 1.5114zm-.8769-1.1114v-.0001c0-.0001 0-.0001 0-.0001s0 0 0-.0001v-.0001c0-.0001 0-.0001 0-.0001v-.0001c0-.0001 0-.0001 0-.0001s0 0 0-.0001v-.0001c0-.0001 0-.0001 0-.0001s0 0 0-.0001v-.0001c0-.0001 0-.0001 0-.0001s0 0 0-.0001v-.0001c0-.0001 0-.0001 0-.0001s0 0 0-.0001v-.0001c0-.0001 0-.0001 0-.0001 0-.0001 0-.0001 0-.0001s0 0 0-.0001v-.0001c0-.0001 0-.0001 0-.0001s0 0 0-.0001v-.0001c0-.0001 0-.0001 0-.0001 0-.0001 0-.0001 0-.0001s0 0 0-.0001v-.0001c0-.0001 0-.0001 0-.0001 0-.0001 0-.0001 0-.0001s0 0 0-.0001v-.0001c0-.0001 0-.0001 0-.0001 0-.0001 0-.0001 0-.0001s0 0 0-.0001v-.0001-.0001c0-.0001 0-.0001 0-.0001s0 0 0-.0001 0 0 0-.0001v-.0001-.0001c0-.0001 0-.0001 0-.0001s0 0 0-.0001 0 0 0-.0001v-.0001-.0001c0-.0001 0-.0001 0-.0001 0-.0001 0-.0001 0-.0001s0 0 0-.0001 0 0 0-.0001v-.0001-.0001c0-.0001 0-.0001 0-.0001 0-.0001 0-.0001 0-.0001s0 0 0-.0001 0 0 0-.0001v-.0001-.0001c0-.0001 0-.0001 0-.0001 0-.0001 0-.0001 0-.0001s0 0 0-.0001 0 0 0-.0001 0 0 0-.0001v-.0001-.0001c0-.0001 0-.0001 0-.0001 0-.0001 0-.0001 0-.0001 0-.0001 0-.0001 0-.0001s0 0 0-.0001 0 0 0-.0001 0 0 0-.0001v-.0001-.0001c0-.0001 0-.0001 0-.0001 0-.0001 0-.0001 0-.0001 0-.0001 0-.0001 0-.0001s0 0 0-.0001 0 0 0-.0001 0 0 0-.0001v-.0001-.0001-.0001c0-.0001 0-.0001 0-.0001 0-.0001 0-.0001 0-.0001 0-.0001 0-.0001 0-.0001s0 0 0-.0001 0 0 0-.0001 0 0 0-.0001v-.0001-.0001-.0001c0-.0001 0-.0001 0-.0001 0-.0001 0-.0001 0-.0001 0-.0001 0-.0001 0-.0001s0 0 0-.0001 0 0 0-.0001 0 0 0-.0001 0 0 0-.0001v-.0001-.0001c0-.0001 0-.0001 0-.0001 0-.0001 0-.0001 0-.0001 0-.0001 0-.0001 0-.0001s0 0 0-.0001 0 0 0-.0001 0 0 0-.0001v-.0001-.0001-.0001c0-.0001 0-.0001 0-.0001 0-.0001 0-.0001 0-.0001 0-.0001 0-.0001 0-.0001s0 0 0-.0001 0 0 0-.0001v-.0001-.0001-.0001c0-.0001 0-.0001 0-.0001 0-.0001 0-.0001 0-.0001s0 0 0-.0001 0 0 0-.0001v-.0001-.0001c0-.0001 0-.0001 0-.0001 0-.0001 0-.0001 0-.0001 0-.0001 0-.0001 0-.0001s0 0 0-.0001 0 0 0-.0001v-.0001-.0001c0-.0001 0-.0001 0-.0001 0-.0001 0-.0001 0-.0001s0 0 0-.0001v-.0001-.0001c0-.0001 0-.0001 0-.0001 0-.0001 0-.0001 0-.0001s0 0 0-.0001 0 0 0-.0001v-.0001c0-.0001 0-.0001 0-.0001 0-.0001 0-.0001 0-.0001s0 0 0-.0001v-.0001-.0001c0-.0001 0-.0001 0-.0001s0 0 0-.0001 0 0 0-.0001v-.0001c0-.0001 0-.0001 0-.0001s0 0 0-.0001 0 0 0-.0001v-.0001c0-.0001 0-.0001 0-.0001s0 0 0-.0001 0 0 0-.0001v-.0001c0-.0001 0-.0001 0-.0001s0 0 0-.0001v-.0001c0-.0001 0-.0001 0-.0001s0 0 0-.0001 0 0 0-.0001v-.0001c0-.0001 0-.0001 0-.0001s0 0 0-.0001v-.0001c0-.0001 0-.0001 0-.0001s0 0 0-.0001v-.0001c0-.0001 0-.0001 0-.0001s0 0 0-.0001v-.0001c0-.0001 0-.0001 0-.0001s0 0 0-.0001c0-.0001 0-.0001 0-.0001s0 0 0-.0001v-.0001c0-.0001 0-.0001 0-.0001s0 0 0-.0001v-.0001h-.4v.0001.0001.0001.0001.0001.0001.0001.0001.0001.0001.0001.0001.0001.0001.0001.0001.0001.0001.0001.0001.0001.0001.0001.0001.0001.0001.0001.0001.0001.0001.0001.0001.0001.0001.0001.0001.0001.0001.0001.0001.0001.0001.0001.0001.0001.0001.0001.0001.0001.0001.0001.0001.0001.0001.0001.0001.0001.0001.0001.0001.0001.0001.0001.0001.0001.0001.0001.0001.0001.0001.0001.0001.0001.0001.0001.0001.0001.0001.0001.0001.0001.0001.0001.0001.0001.0001.0001.0001.0001.0001.0001.0001.0001.0001.0001.0001.0001.0001.0001.0001.0001.0001.0001.0001.0001.0001.0001.0001.0001.0001.0001.0001.0001.0001.0001.0001.0001.0001.0001.0001.0001.0001.0001.0001.0001.0001.0001.0001.0001.0001.0001.0001.0001.0001.0001.0001.0001.0001.0001.0001.0001.0001.0001.0001.0001.0001.0001.0001.0001.0001.0001.0001.0001.0001.0001.0001.0001.0001.0001.0001.0001.0001.0001.0001.0001.0001.0001.0001.0001.0001.0001.0001.0001.0001.0001.0001.0001.0001.0001.0001.0001.0001.0001zm0-.0183v-1.3114h-.4v1.3114zm-.2-1.5114h-6.4615v.4h6.4615zm-6.6615.2v1.3114h.4v-1.3114zm0 1.3114v.0001.0001.0001.0001.0001.0001.0001.0001.0001.0001.0001.0001.0001.0001.0001.0001.0001.0001.0001.0001.0001.0001.0001.0001.0001.0001.0001.0001.0001.0001.0001.0001.0001.0001.0001.0001.0001.0001.0001.0001.0001.0001.0001.0001.0001.0001.0001.0001.0001.0001.0001.0001.0001.0001.0001.0001.0001.0001.0001.0001.0001.0001.0001.0001.0001.0001.0001.0001.0001.0001.0001.0001.0001.0001.0001.0001.0001.0001.0001.0001.0001.0001.0001.0001.0001.0001.0001.0001.0001.0001.0001.0001.0001.0001.0001.0001.0001.0001.0001.0001.0001.0001.0001.0001.0001.0001.0001.0001.0001.0001.0001.0001.0001.0001.0001.0001.0001.0001.0001.0001.0001.0001.0001.0001.0001.0001.0001.0001.0001.0001.0001.0001.0001.0001.0001.0001.0001.0001.0001.0001.0001.0001.0001.0001.0001.0001.0001.0001.0001.0001.0001.0001.0001.0001.0001.0001.0001.0001.0001.0001.0001.0001.0001.0001.0001.0001.0001.0001.0001.0001.0001.0001.0001.0001.0001.0001.0001.0001.0001.0001.0001.0001.0001h.4v-.0001c0-.0001 0-.0001 0-.0001s0 0 0-.0001v-.0001c0-.0001 0-.0001 0-.0001v-.0001c0-.0001 0-.0001 0-.0001s0 0 0-.0001v-.0001c0-.0001 0-.0001 0-.0001s0 0 0-.0001v-.0001c0-.0001 0-.0001 0-.0001s0 0 0-.0001v-.0001c0-.0001 0-.0001 0-.0001s0 0 0-.0001v-.0001c0-.0001 0-.0001 0-.0001 0-.0001 0-.0001 0-.0001s0 0 0-.0001v-.0001c0-.0001 0-.0001 0-.0001s0 0 0-.0001v-.0001c0-.0001 0-.0001 0-.0001 0-.0001 0-.0001 0-.0001s0 0 0-.0001v-.0001c0-.0001 0-.0001 0-.0001 0-.0001 0-.0001 0-.0001s0 0 0-.0001v-.0001c0-.0001 0-.0001 0-.0001 0-.0001 0-.0001 0-.0001s0 0 0-.0001v-.0001-.0001c0-.0001 0-.0001 0-.0001s0 0 0-.0001 0 0 0-.0001v-.0001-.0001c0-.0001 0-.0001 0-.0001s0 0 0-.0001 0 0 0-.0001v-.0001-.0001c0-.0001 0-.0001 0-.0001 0-.0001 0-.0001 0-.0001s0 0 0-.0001 0 0 0-.0001v-.0001-.0001c0-.0001 0-.0001 0-.0001 0-.0001 0-.0001 0-.0001s0 0 0-.0001 0 0 0-.0001v-.0001-.0001c0-.0001 0-.0001 0-.0001 0-.0001 0-.0001 0-.0001s0 0 0-.0001 0 0 0-.0001 0 0 0-.0001v-.0001-.0001c0-.0001 0-.0001 0-.0001 0-.0001 0-.0001 0-.0001 0-.0001 0-.0001 0-.0001s0 0 0-.0001 0 0 0-.0001 0 0 0-.0001v-.0001-.0001c0-.0001 0-.0001 0-.0001 0-.0001 0-.0001 0-.0001 0-.0001 0-.0001 0-.0001s0 0 0-.0001 0 0 0-.0001 0 0 0-.0001v-.0001-.0001-.0001c0-.0001 0-.0001 0-.0001 0-.0001 0-.0001 0-.0001 0-.0001 0-.0001 0-.0001s0 0 0-.0001 0 0 0-.0001 0 0 0-.0001v-.0001-.0001-.0001c0-.0001 0-.0001 0-.0001 0-.0001 0-.0001 0-.0001 0-.0001 0-.0001 0-.0001s0 0 0-.0001 0 0 0-.0001 0 0 0-.0001 0 0 0-.0001v-.0001-.0001c0-.0001 0-.0001 0-.0001 0-.0001 0-.0001 0-.0001 0-.0001 0-.0001 0-.0001s0 0 0-.0001 0 0 0-.0001 0 0 0-.0001v-.0001-.0001-.0001c0-.0001 0-.0001 0-.0001 0-.0001 0-.0001 0-.0001 0-.0001 0-.0001 0-.0001s0 0 0-.0001 0 0 0-.0001v-.0001-.0001-.0001c0-.0001 0-.0001 0-.0001 0-.0001 0-.0001 0-.0001s0 0 0-.0001 0 0 0-.0001v-.0001-.0001c0-.0001 0-.0001 0-.0001 0-.0001 0-.0001 0-.0001 0-.0001 0-.0001 0-.0001s0 0 0-.0001 0 0 0-.0001v-.0001-.0001c0-.0001 0-.0001 0-.0001 0-.0001 0-.0001 0-.0001s0 0 0-.0001v-.0001-.0001c0-.0001 0-.0001 0-.0001 0-.0001 0-.0001 0-.0001s0 0 0-.0001 0 0 0-.0001v-.0001c0-.0001 0-.0001 0-.0001 0-.0001 0-.0001 0-.0001s0 0 0-.0001v-.0001-.0001c0-.0001 0-.0001 0-.0001s0 0 0-.0001 0 0 0-.0001v-.0001c0-.0001 0-.0001 0-.0001s0 0 0-.0001 0 0 0-.0001v-.0001c0-.0001 0-.0001 0-.0001s0 0 0-.0001 0 0 0-.0001v-.0001c0-.0001 0-.0001 0-.0001s0 0 0-.0001v-.0001c0-.0001 0-.0001 0-.0001s0 0 0-.0001 0 0 0-.0001v-.0001c0-.0001 0-.0001 0-.0001s0 0 0-.0001v-.0001c0-.0001 0-.0001 0-.0001s0 0 0-.0001v-.0001c0-.0001 0-.0001 0-.0001s0 0 0-.0001v-.0001c0-.0001 0-.0001 0-.0001s0 0 0-.0001c0-.0001 0-.0001 0-.0001s0 0 0-.0001v-.0001c0-.0001 0-.0001 0-.0001s0 0 0-.0001v-.0001zm0 .0183c0 .6482-.4312 1.1114-.8769 1.1114v.4c.7367 0 1.2769-.7196 1.2769-1.5114zm-.8769 1.1114c-.4458 0-.877-.4632-.877-1.1114h-.4c0 .7918.5402 1.5114 1.277 1.5114zm-.877-1.1114v-.0001c0-.0001 0-.0001 0-.0001s0 0 0-.0001v-.0001c0-.0001 0-.0001 0-.0001v-.0001c0-.0001 0-.0001 0-.0001s0 0 0-.0001v-.0001c0-.0001 0-.0001 0-.0001s0 0 0-.0001v-.0001c0-.0001 0-.0001 0-.0001s0 0 0-.0001v-.0001c0-.0001 0-.0001 0-.0001s0 0 0-.0001v-.0001c0-.0001 0-.0001 0-.0001 0-.0001 0-.0001 0-.0001s0 0 0-.0001v-.0001c0-.0001 0-.0001 0-.0001s0 0 0-.0001v-.0001c0-.0001 0-.0001 0-.0001 0-.0001 0-.0001 0-.0001s0 0 0-.0001v-.0001c0-.0001 0-.0001 0-.0001 0-.0001 0-.0001 0-.0001s0 0 0-.0001v-.0001c0-.0001 0-.0001 0-.0001 0-.0001 0-.0001 0-.0001s0 0 0-.0001v-.0001-.0001c0-.0001 0-.0001 0-.0001s0 0 0-.0001 0 0 0-.0001v-.0001-.0001c0-.0001 0-.0001 0-.0001s0 0 0-.0001 0 0 0-.0001v-.0001-.0001c0-.0001 0-.0001 0-.0001 0-.0001 0-.0001 0-.0001s0 0 0-.0001 0 0 0-.0001v-.0001-.0001c0-.0001 0-.0001 0-.0001 0-.0001 0-.0001 0-.0001s0 0 0-.0001 0 0 0-.0001v-.0001-.0001c0-.0001 0-.0001 0-.0001 0-.0001 0-.0001 0-.0001s0 0 0-.0001 0 0 0-.0001 0 0 0-.0001v-.0001-.0001c0-.0001 0-.0001 0-.0001 0-.0001 0-.0001 0-.0001 0-.0001 0-.0001 0-.0001s0 0 0-.0001 0 0 0-.0001 0 0 0-.0001v-.0001-.0001c0-.0001 0-.0001 0-.0001 0-.0001 0-.0001 0-.0001 0-.0001 0-.0001 0-.0001s0 0 0-.0001 0 0 0-.0001 0 0 0-.0001v-.0001-.0001-.0001c0-.0001 0-.0001 0-.0001 0-.0001 0-.0001 0-.0001 0-.0001 0-.0001 0-.0001s0 0 0-.0001 0 0 0-.0001 0 0 0-.0001v-.0001-.0001-.0001c0-.0001 0-.0001 0-.0001 0-.0001 0-.0001 0-.0001 0-.0001 0-.0001 0-.0001s0 0 0-.0001 0 0 0-.0001 0 0 0-.0001 0 0 0-.0001v-.0001-.0001c0-.0001 0-.0001 0-.0001 0-.0001 0-.0001 0-.0001 0-.0001 0-.0001 0-.0001s0 0 0-.0001 0 0 0-.0001 0 0 0-.0001v-.0001-.0001-.0001c0-.0001 0-.0001 0-.0001 0-.0001 0-.0001 0-.0001 0-.0001 0-.0001 0-.0001s0 0 0-.0001 0 0 0-.0001v-.0001-.0001-.0001c0-.0001 0-.0001 0-.0001 0-.0001 0-.0001 0-.0001s0 0 0-.0001 0 0 0-.0001v-.0001-.0001c0-.0001 0-.0001 0-.0001 0-.0001 0-.0001 0-.0001 0-.0001 0-.0001 0-.0001s0 0 0-.0001 0 0 0-.0001v-.0001-.0001c0-.0001 0-.0001 0-.0001 0-.0001 0-.0001 0-.0001s0 0 0-.0001v-.0001-.0001c0-.0001 0-.0001 0-.0001 0-.0001 0-.0001 0-.0001s0 0 0-.0001 0 0 0-.0001v-.0001c0-.0001 0-.0001 0-.0001 0-.0001 0-.0001 0-.0001s0 0 0-.0001v-.0001-.0001c0-.0001 0-.0001 0-.0001s0 0 0-.0001 0 0 0-.0001v-.0001c0-.0001 0-.0001 0-.0001s0 0 0-.0001 0 0 0-.0001v-.0001c0-.0001 0-.0001 0-.0001s0 0 0-.0001 0 0 0-.0001v-.0001c0-.0001 0-.0001 0-.0001s0 0 0-.0001v-.0001c0-.0001 0-.0001 0-.0001s0 0 0-.0001 0 0 0-.0001v-.0001c0-.0001 0-.0001 0-.0001s0 0 0-.0001v-.0001c0-.0001 0-.0001 0-.0001s0 0 0-.0001v-.0001c0-.0001 0-.0001 0-.0001s0 0 0-.0001v-.0001c0-.0001 0-.0001 0-.0001s0 0 0-.0001c0-.0001 0-.0001 0-.0001s0 0 0-.0001v-.0001c0-.0001 0-.0001 0-.0001s0 0 0-.0001v-.0001h-.4v.0001.0001.0001.0001.0001.0001.0001.0001.0001.0001.0001.0001.0001.0001.0001.0001.0001.0001.0001.0001.0001.0001.0001.0001.0001.0001.0001.0001.0001.0001.0001.0001.0001.0001.0001.0001.0001.0001.0001.0001.0001.0001.0001.0001.0001.0001.0001.0001.0001.0001.0001.0001.0001.0001.0001.0001.0001.0001.0001.0001.0001.0001.0001.0001.0001.0001.0001.0001.0001.0001.0001.0001.0001.0001.0001.0001.0001.0001.0001.0001.0001.0001.0001.0001.0001.0001.0001.0001.0001.0001.0001.0001.0001.0001.0001.0001.0001.0001.0001.0001.0001.0001.0001.0001.0001.0001.0001.0001.0001.0001.0001.0001.0001.0001.0001.0001.0001.0001.0001.0001.0001.0001.0001.0001.0001.0001.0001.0001.0001.0001.0001.0001.0001.0001.0001.0001.0001.0001.0001.0001.0001.0001.0001.0001.0001.0001.0001.0001.0001.0001.0001.0001.0001.0001.0001.0001.0001.0001.0001.0001.0001.0001.0001.0001.0001.0001.0001.0001.0001.0001.0001.0001.0001.0001.0001.0001.0001.0001.0001.0001.0001.0001.0001zm0-.0183v-1.3114h-.4v1.3114zm-.2-1.5114h-2.15381v.4h2.15381zm-2.35381.2v1.3114h.4v-1.3114zm0 1.3114v.0001.0001.0001.0001.0001.0001.0001.0001.0001.0001.0001.0001.0001.0001.0001.0001.0001.0001.0001.0001.0001.0001.0001.0001.0001.0001.0001.0001.0001.0001.0001.0001.0001.0001.0001.0001.0001.0001.0001.0001.0001.0001.0001.0001.0001.0001.0001.0001.0001.0001.0001.0001.0001.0001.0001.0001.0001.0001.0001.0001.0001.0001.0001.0001.0001.0001.0001.0001.0001.0001.0001.0001.0001.0001.0001.0001.0001.0001.0001.0001.0001.0001.0001.0001.0001.0001.0001.0001.0001.0001.0001.0001.0001.0001.0001.0001.0001.0001.0001.0001.0001.0001.0001.0001.0001.0001.0001.0001.0001.0001.0001.0001.0001.0001.0001.0001.0001.0001.0001.0001.0001.0001.0001.0001.0001.0001.0001.0001.0001.0001.0001.0001.0001.0001.0001.0001.0001.0001.0001.0001.0001.0001.0001.0001.0001.0001.0001.0001.0001.0001.0001.0001.0001.0001.0001.0001.0001.0001.0001.0001.0001.0001.0001.0001.0001.0001.0001.0001.0001.0001.0001.0001.0001.0001.0001.0001.0001.0001.0001.0001.0001.0001.0001h.4v-.0001c0-.0001 0-.0001 0-.0001s0 0 0-.0001v-.0001c0-.0001 0-.0001 0-.0001v-.0001c0-.0001 0-.0001 0-.0001s0 0 0-.0001v-.0001c0-.0001 0-.0001 0-.0001s0 0 0-.0001v-.0001c0-.0001 0-.0001 0-.0001s0 0 0-.0001v-.0001c0-.0001 0-.0001 0-.0001s0 0 0-.0001v-.0001c0-.0001 0-.0001 0-.0001 0-.0001 0-.0001 0-.0001s0 0 0-.0001v-.0001c0-.0001 0-.0001 0-.0001s0 0 0-.0001v-.0001c0-.0001 0-.0001 0-.0001 0-.0001 0-.0001 0-.0001s0 0 0-.0001v-.0001c0-.0001 0-.0001 0-.0001 0-.0001 0-.0001 0-.0001s0 0 0-.0001v-.0001c0-.0001 0-.0001 0-.0001 0-.0001 0-.0001 0-.0001s0 0 0-.0001v-.0001-.0001c0-.0001 0-.0001 0-.0001s0 0 0-.0001 0 0 0-.0001v-.0001-.0001c0-.0001 0-.0001 0-.0001s0 0 0-.0001 0 0 0-.0001v-.0001-.0001c0-.0001 0-.0001 0-.0001 0-.0001 0-.0001 0-.0001s0 0 0-.0001 0 0 0-.0001v-.0001-.0001c0-.0001 0-.0001 0-.0001 0-.0001 0-.0001 0-.0001s0 0 0-.0001 0 0 0-.0001v-.0001-.0001c0-.0001 0-.0001 0-.0001 0-.0001 0-.0001 0-.0001s0 0 0-.0001 0 0 0-.0001 0 0 0-.0001v-.0001-.0001c0-.0001 0-.0001 0-.0001 0-.0001 0-.0001 0-.0001 0-.0001 0-.0001 0-.0001s0 0 0-.0001 0 0 0-.0001 0 0 0-.0001v-.0001-.0001c0-.0001 0-.0001 0-.0001 0-.0001 0-.0001 0-.0001 0-.0001 0-.0001 0-.0001s0 0 0-.0001 0 0 0-.0001 0 0 0-.0001v-.0001-.0001-.0001c0-.0001 0-.0001 0-.0001 0-.0001 0-.0001 0-.0001 0-.0001 0-.0001 0-.0001s0 0 0-.0001 0 0 0-.0001 0 0 0-.0001v-.0001-.0001-.0001c0-.0001 0-.0001 0-.0001 0-.0001 0-.0001 0-.0001 0-.0001 0-.0001 0-.0001s0 0 0-.0001 0 0 0-.0001 0 0 0-.0001 0 0 0-.0001v-.0001-.0001c0-.0001 0-.0001 0-.0001 0-.0001 0-.0001 0-.0001 0-.0001 0-.0001 0-.0001s0 0 0-.0001 0 0 0-.0001 0 0 0-.0001v-.0001-.0001-.0001c0-.0001 0-.0001 0-.0001 0-.0001 0-.0001 0-.0001 0-.0001 0-.0001 0-.0001s0 0 0-.0001 0 0 0-.0001v-.0001-.0001-.0001c0-.0001 0-.0001 0-.0001 0-.0001 0-.0001 0-.0001s0 0 0-.0001 0 0 0-.0001v-.0001-.0001c0-.0001 0-.0001 0-.0001 0-.0001 0-.0001 0-.0001 0-.0001 0-.0001 0-.0001s0 0 0-.0001 0 0 0-.0001v-.0001-.0001c0-.0001 0-.0001 0-.0001 0-.0001 0-.0001 0-.0001s0 0 0-.0001v-.0001-.0001c0-.0001 0-.0001 0-.0001 0-.0001 0-.0001 0-.0001s0 0 0-.0001 0 0 0-.0001v-.0001c0-.0001 0-.0001 0-.0001 0-.0001 0-.0001 0-.0001s0 0 0-.0001v-.0001-.0001c0-.0001 0-.0001 0-.0001s0 0 0-.0001 0 0 0-.0001v-.0001c0-.0001 0-.0001 0-.0001s0 0 0-.0001 0 0 0-.0001v-.0001c0-.0001 0-.0001 0-.0001s0 0 0-.0001 0 0 0-.0001v-.0001c0-.0001 0-.0001 0-.0001s0 0 0-.0001v-.0001c0-.0001 0-.0001 0-.0001s0 0 0-.0001 0 0 0-.0001v-.0001c0-.0001 0-.0001 0-.0001s0 0 0-.0001v-.0001c0-.0001 0-.0001 0-.0001s0 0 0-.0001v-.0001c0-.0001 0-.0001 0-.0001s0 0 0-.0001v-.0001c0-.0001 0-.0001 0-.0001s0 0 0-.0001c0-.0001 0-.0001 0-.0001s0 0 0-.0001v-.0001c0-.0001 0-.0001 0-.0001s0 0 0-.0001v-.0001zm0 .0183c0 .6482-.43119 1.1114-.87693 1.1114v.4c.73673 0 1.27693-.7196 1.27693-1.5114zm-.87693 1.1114c-.44573 0-.87692-.4632-.87692-1.1114h-.4c0 .7918.5402 1.5114 1.27692 1.5114zm-.87692-1.1114v-.0001c0-.0001 0-.0001 0-.0001s0 0 0-.0001v-.0001c0-.0001 0-.0001 0-.0001v-.0001c0-.0001 0-.0001 0-.0001s0 0 0-.0001v-.0001c0-.0001 0-.0001 0-.0001s0 0 0-.0001v-.0001c0-.0001 0-.0001 0-.0001s0 0 0-.0001v-.0001c0-.0001 0-.0001 0-.0001s0 0 0-.0001v-.0001c0-.0001 0-.0001 0-.0001 0-.0001 0-.0001 0-.0001s0 0 0-.0001v-.0001c0-.0001 0-.0001 0-.0001s0 0 0-.0001v-.0001c0-.0001 0-.0001 0-.0001 0-.0001 0-.0001 0-.0001s0 0 0-.0001v-.0001c0-.0001 0-.0001 0-.0001 0-.0001 0-.0001 0-.0001s0 0 0-.0001v-.0001c0-.0001 0-.0001 0-.0001 0-.0001 0-.0001 0-.0001s0 0 0-.0001v-.0001-.0001c0-.0001 0-.0001 0-.0001s0 0 0-.0001 0 0 0-.0001v-.0001-.0001c0-.0001 0-.0001 0-.0001s0 0 0-.0001 0 0 0-.0001v-.0001-.0001c0-.0001 0-.0001 0-.0001 0-.0001 0-.0001 0-.0001s0 0 0-.0001 0 0 0-.0001v-.0001-.0001c0-.0001 0-.0001 0-.0001 0-.0001 0-.0001 0-.0001s0 0 0-.0001 0 0 0-.0001v-.0001-.0001c0-.0001 0-.0001 0-.0001 0-.0001 0-.0001 0-.0001s0 0 0-.0001 0 0 0-.0001 0 0 0-.0001v-.0001-.0001c0-.0001 0-.0001 0-.0001 0-.0001 0-.0001 0-.0001 0-.0001 0-.0001 0-.0001s0 0 0-.0001 0 0 0-.0001 0 0 0-.0001v-.0001-.0001c0-.0001 0-.0001 0-.0001 0-.0001 0-.0001 0-.0001 0-.0001 0-.0001 0-.0001s0 0 0-.0001 0 0 0-.0001 0 0 0-.0001v-.0001-.0001-.0001c0-.0001 0-.0001 0-.0001 0-.0001 0-.0001 0-.0001 0-.0001 0-.0001 0-.0001s0 0 0-.0001 0 0 0-.0001 0 0 0-.0001v-.0001-.0001-.0001c0-.0001 0-.0001 0-.0001 0-.0001 0-.0001 0-.0001 0-.0001 0-.0001 0-.0001s0 0 0-.0001 0 0 0-.0001 0 0 0-.0001 0 0 0-.0001v-.0001-.0001c0-.0001 0-.0001 0-.0001 0-.0001 0-.0001 0-.0001 0-.0001 0-.0001 0-.0001s0 0 0-.0001 0 0 0-.0001 0 0 0-.0001v-.0001-.0001-.0001c0-.0001 0-.0001 0-.0001 0-.0001 0-.0001 0-.0001 0-.0001 0-.0001 0-.0001s0 0 0-.0001 0 0 0-.0001v-.0001-.0001-.0001c0-.0001 0-.0001 0-.0001 0-.0001 0-.0001 0-.0001s0 0 0-.0001 0 0 0-.0001v-.0001-.0001c0-.0001 0-.0001 0-.0001 0-.0001 0-.0001 0-.0001 0-.0001 0-.0001 0-.0001s0 0 0-.0001 0 0 0-.0001v-.0001-.0001c0-.0001 0-.0001 0-.0001 0-.0001 0-.0001 0-.0001s0 0 0-.0001v-.0001-.0001c0-.0001 0-.0001 0-.0001 0-.0001 0-.0001 0-.0001s0 0 0-.0001 0 0 0-.0001v-.0001c0-.0001 0-.0001 0-.0001 0-.0001 0-.0001 0-.0001s0 0 0-.0001v-.0001-.0001c0-.0001 0-.0001 0-.0001s0 0 0-.0001 0 0 0-.0001v-.0001c0-.0001 0-.0001 0-.0001s0 0 0-.0001 0 0 0-.0001v-.0001c0-.0001 0-.0001 0-.0001s0 0 0-.0001 0 0 0-.0001v-.0001c0-.0001 0-.0001 0-.0001s0 0 0-.0001v-.0001c0-.0001 0-.0001 0-.0001s0 0 0-.0001 0 0 0-.0001v-.0001c0-.0001 0-.0001 0-.0001s0 0 0-.0001v-.0001c0-.0001 0-.0001 0-.0001s0 0 0-.0001v-.0001c0-.0001 0-.0001 0-.0001s0 0 0-.0001v-.0001c0-.0001 0-.0001 0-.0001s0 0 0-.0001c0-.0001 0-.0001 0-.0001s0 0 0-.0001v-.0001c0-.0001 0-.0001 0-.0001s0 0 0-.0001v-.0001h-.4v.0001.0001.0001.0001.0001.0001.0001.0001.0001.0001.0001.0001.0001.0001.0001.0001.0001.0001.0001.0001.0001.0001.0001.0001.0001.0001.0001.0001.0001.0001.0001.0001.0001.0001.0001.0001.0001.0001.0001.0001.0001.0001.0001.0001.0001.0001.0001.0001.0001.0001.0001.0001.0001.0001.0001.0001.0001.0001.0001.0001.0001.0001.0001.0001.0001.0001.0001.0001.0001.0001.0001.0001.0001.0001.0001.0001.0001.0001.0001.0001.0001.0001.0001.0001.0001.0001.0001.0001.0001.0001.0001.0001.0001.0001.0001.0001.0001.0001.0001.0001.0001.0001.0001.0001.0001.0001.0001.0001.0001.0001.0001.0001.0001.0001.0001.0001.0001.0001.0001.0001.0001.0001.0001.0001.0001.0001.0001.0001.0001.0001.0001.0001.0001.0001.0001.0001.0001.0001.0001.0001.0001.0001.0001.0001.0001.0001.0001.0001.0001.0001.0001.0001.0001.0001.0001.0001.0001.0001.0001.0001.0001.0001.0001.0001.0001.0001.0001.0001.0001.0001.0001.0001.0001.0001.0001.0001.0001.0001.0001.0001.0001.0001.0001zm0-.0183v-1.3114h-.4v1.3114zm-.2-1.5114h-2.15385v.4h2.15385zm-2.35385.2v1.3114h.4v-1.3114zm0 1.3114v.0001.0001.0001.0001.0001.0001.0001.0001.0001.0001.0001.0001.0001.0001.0001.0001.0001.0001.0001.0001.0001.0001.0001.0001.0001.0001.0001.0001.0001.0001.0001.0001.0001.0001.0001.0001.0001.0001.0001.0001.0001.0001.0001.0001.0001.0001.0001.0001.0001.0001.0001.0001.0001.0001.0001.0001.0001.0001.0001.0001.0001.0001.0001.0001.0001.0001.0001.0001.0001.0001.0001.0001.0001.0001.0001.0001.0001.0001.0001.0001.0001.0001.0001.0001.0001.0001.0001.0001.0001.0001.0001.0001.0001.0001.0001.0001.0001.0001.0001.0001.0001.0001.0001.0001.0001.0001.0001.0001.0001.0001.0001.0001.0001.0001.0001.0001.0001.0001.0001.0001.0001.0001.0001.0001.0001.0001.0001.0001.0001.0001.0001.0001.0001.0001.0001.0001.0001.0001.0001.0001.0001.0001.0001.0001.0001.0001.0001.0001.0001.0001.0001.0001.0001.0001.0001.0001.0001.0001.0001.0001.0001.0001.0001.0001.0001.0001.0001.0001.0001.0001.0001.0001.0001.0001.0001.0001.0001.0001.0001.0001.0001.0001.0001h.4v-.0001c0-.0001 0-.0001 0-.0001s0 0 0-.0001v-.0001c0-.0001 0-.0001 0-.0001v-.0001c0-.0001 0-.0001 0-.0001s0 0 0-.0001v-.0001c0-.0001 0-.0001 0-.0001s0 0 0-.0001v-.0001c0-.0001 0-.0001 0-.0001s0 0 0-.0001v-.0001c0-.0001 0-.0001 0-.0001s0 0 0-.0001v-.0001c0-.0001 0-.0001 0-.0001 0-.0001 0-.0001 0-.0001s0 0 0-.0001v-.0001c0-.0001 0-.0001 0-.0001s0 0 0-.0001v-.0001c0-.0001 0-.0001 0-.0001 0-.0001 0-.0001 0-.0001s0 0 0-.0001v-.0001c0-.0001 0-.0001 0-.0001 0-.0001 0-.0001 0-.0001s0 0 0-.0001v-.0001c0-.0001 0-.0001 0-.0001 0-.0001 0-.0001 0-.0001s0 0 0-.0001v-.0001-.0001c0-.0001 0-.0001 0-.0001s0 0 0-.0001 0 0 0-.0001v-.0001-.0001c0-.0001 0-.0001 0-.0001s0 0 0-.0001 0 0 0-.0001v-.0001-.0001c0-.0001 0-.0001 0-.0001 0-.0001 0-.0001 0-.0001s0 0 0-.0001 0 0 0-.0001v-.0001-.0001c0-.0001 0-.0001 0-.0001 0-.0001 0-.0001 0-.0001s0 0 0-.0001 0 0 0-.0001v-.0001-.0001c0-.0001 0-.0001 0-.0001 0-.0001 0-.0001 0-.0001s0 0 0-.0001 0 0 0-.0001 0 0 0-.0001v-.0001-.0001c0-.0001 0-.0001 0-.0001 0-.0001 0-.0001 0-.0001 0-.0001 0-.0001 0-.0001s0 0 0-.0001 0 0 0-.0001 0 0 0-.0001v-.0001-.0001c0-.0001 0-.0001 0-.0001 0-.0001 0-.0001 0-.0001 0-.0001 0-.0001 0-.0001s0 0 0-.0001 0 0 0-.0001 0 0 0-.0001v-.0001-.0001-.0001c0-.0001 0-.0001 0-.0001 0-.0001 0-.0001 0-.0001 0-.0001 0-.0001 0-.0001s0 0 0-.0001 0 0 0-.0001 0 0 0-.0001v-.0001-.0001-.0001c0-.0001 0-.0001 0-.0001 0-.0001 0-.0001 0-.0001 0-.0001 0-.0001 0-.0001s0 0 0-.0001 0 0 0-.0001 0 0 0-.0001 0 0 0-.0001v-.0001-.0001c0-.0001 0-.0001 0-.0001 0-.0001 0-.0001 0-.0001 0-.0001 0-.0001 0-.0001s0 0 0-.0001 0 0 0-.0001 0 0 0-.0001v-.0001-.0001-.0001c0-.0001 0-.0001 0-.0001 0-.0001 0-.0001 0-.0001 0-.0001 0-.0001 0-.0001s0 0 0-.0001 0 0 0-.0001v-.0001-.0001-.0001c0-.0001 0-.0001 0-.0001 0-.0001 0-.0001 0-.0001s0 0 0-.0001 0 0 0-.0001v-.0001-.0001c0-.0001 0-.0001 0-.0001 0-.0001 0-.0001 0-.0001 0-.0001 0-.0001 0-.0001s0 0 0-.0001 0 0 0-.0001v-.0001-.0001c0-.0001 0-.0001 0-.0001 0-.0001 0-.0001 0-.0001s0 0 0-.0001v-.0001-.0001c0-.0001 0-.0001 0-.0001 0-.0001 0-.0001 0-.0001s0 0 0-.0001 0 0 0-.0001v-.0001c0-.0001 0-.0001 0-.0001 0-.0001 0-.0001 0-.0001s0 0 0-.0001v-.0001-.0001c0-.0001 0-.0001 0-.0001s0 0 0-.0001 0 0 0-.0001v-.0001c0-.0001 0-.0001 0-.0001s0 0 0-.0001 0 0 0-.0001v-.0001c0-.0001 0-.0001 0-.0001s0 0 0-.0001 0 0 0-.0001v-.0001c0-.0001 0-.0001 0-.0001s0 0 0-.0001v-.0001c0-.0001 0-.0001 0-.0001s0 0 0-.0001 0 0 0-.0001v-.0001c0-.0001 0-.0001 0-.0001s0 0 0-.0001v-.0001c0-.0001 0-.0001 0-.0001s0 0 0-.0001v-.0001c0-.0001 0-.0001 0-.0001s0 0 0-.0001v-.0001c0-.0001 0-.0001 0-.0001s0 0 0-.0001c0-.0001 0-.0001 0-.0001s0 0 0-.0001v-.0001c0-.0001 0-.0001 0-.0001s0 0 0-.0001v-.0001zm0 .0183c0 .6482-.43118 1.1114-.87692 1.1114v.4c.73672 0 1.27692-.7196 1.27692-1.5114zm-.87692 1.1114c-.44574 0-.87692-.4632-.87692-1.1114h-.4c0 .7918.54019 1.5114 1.27692 1.5114zm-.87692-1.1114v-.0001c0-.0001 0-.0001 0-.0001s0 0 0-.0001v-.0001c0-.0001 0-.0001 0-.0001v-.0001c0-.0001 0-.0001 0-.0001s0 0 0-.0001v-.0001c0-.0001 0-.0001 0-.0001s0 0 0-.0001v-.0001c0-.0001 0-.0001 0-.0001s0 0 0-.0001v-.0001c0-.0001 0-.0001 0-.0001s0 0 0-.0001v-.0001c0-.0001 0-.0001 0-.0001 0-.0001 0-.0001 0-.0001s0 0 0-.0001v-.0001c0-.0001 0-.0001 0-.0001s0 0 0-.0001v-.0001c0-.0001 0-.0001 0-.0001 0-.0001 0-.0001 0-.0001s0 0 0-.0001v-.0001c0-.0001 0-.0001 0-.0001 0-.0001 0-.0001 0-.0001s0 0 0-.0001v-.0001c0-.0001 0-.0001 0-.0001 0-.0001 0-.0001 0-.0001s0 0 0-.0001v-.0001-.0001c0-.0001 0-.0001 0-.0001s0 0 0-.0001 0 0 0-.0001v-.0001-.0001c0-.0001 0-.0001 0-.0001s0 0 0-.0001 0 0 0-.0001v-.0001-.0001c0-.0001 0-.0001 0-.0001 0-.0001 0-.0001 0-.0001s0 0 0-.0001 0 0 0-.0001v-.0001-.0001c0-.0001 0-.0001 0-.0001 0-.0001 0-.0001 0-.0001s0 0 0-.0001 0 0 0-.0001v-.0001-.0001c0-.0001 0-.0001 0-.0001 0-.0001 0-.0001 0-.0001s0 0 0-.0001 0 0 0-.0001 0 0 0-.0001v-.0001-.0001c0-.0001 0-.0001 0-.0001 0-.0001 0-.0001 0-.0001 0-.0001 0-.0001 0-.0001s0 0 0-.0001 0 0 0-.0001 0 0 0-.0001v-.0001-.0001c0-.0001 0-.0001 0-.0001 0-.0001 0-.0001 0-.0001 0-.0001 0-.0001 0-.0001s0 0 0-.0001 0 0 0-.0001 0 0 0-.0001v-.0001-.0001-.0001c0-.0001 0-.0001 0-.0001 0-.0001 0-.0001 0-.0001 0-.0001 0-.0001 0-.0001s0 0 0-.0001 0 0 0-.0001 0 0 0-.0001v-.0001-.0001-.0001c0-.0001 0-.0001 0-.0001 0-.0001 0-.0001 0-.0001 0-.0001 0-.0001 0-.0001s0 0 0-.0001 0 0 0-.0001 0 0 0-.0001 0 0 0-.0001v-.0001-.0001c0-.0001 0-.0001 0-.0001 0-.0001 0-.0001 0-.0001 0-.0001 0-.0001 0-.0001s0 0 0-.0001 0 0 0-.0001 0 0 0-.0001v-.0001-.0001-.0001c0-.0001 0-.0001 0-.0001 0-.0001 0-.0001 0-.0001 0-.0001 0-.0001 0-.0001s0 0 0-.0001 0 0 0-.0001v-.0001-.0001-.0001c0-.0001 0-.0001 0-.0001 0-.0001 0-.0001 0-.0001s0 0 0-.0001 0 0 0-.0001v-.0001-.0001c0-.0001 0-.0001 0-.0001 0-.0001 0-.0001 0-.0001 0-.0001 0-.0001 0-.0001s0 0 0-.0001 0 0 0-.0001v-.0001-.0001c0-.0001 0-.0001 0-.0001 0-.0001 0-.0001 0-.0001s0 0 0-.0001v-.0001-.0001c0-.0001 0-.0001 0-.0001 0-.0001 0-.0001 0-.0001s0 0 0-.0001 0 0 0-.0001v-.0001c0-.0001 0-.0001 0-.0001 0-.0001 0-.0001 0-.0001s0 0 0-.0001v-.0001-.0001c0-.0001 0-.0001 0-.0001s0 0 0-.0001 0 0 0-.0001v-.0001c0-.0001 0-.0001 0-.0001s0 0 0-.0001 0 0 0-.0001v-.0001c0-.0001 0-.0001 0-.0001s0 0 0-.0001 0 0 0-.0001v-.0001c0-.0001 0-.0001 0-.0001s0 0 0-.0001v-.0001c0-.0001 0-.0001 0-.0001s0 0 0-.0001 0 0 0-.0001v-.0001c0-.0001 0-.0001 0-.0001s0 0 0-.0001v-.0001c0-.0001 0-.0001 0-.0001s0 0 0-.0001v-.0001c0-.0001 0-.0001 0-.0001s0 0 0-.0001v-.0001c0-.0001 0-.0001 0-.0001s0 0 0-.0001c0-.0001 0-.0001 0-.0001s0 0 0-.0001v-.0001c0-.0001 0-.0001 0-.0001s0 0 0-.0001v-.0001h-.4v.0001.0001.0001.0001.0001.0001.0001.0001.0001.0001.0001.0001.0001.0001.0001.0001.0001.0001.0001.0001.0001.0001.0001.0001.0001.0001.0001.0001.0001.0001.0001.0001.0001.0001.0001.0001.0001.0001.0001.0001.0001.0001.0001.0001.0001.0001.0001.0001.0001.0001.0001.0001.0001.0001.0001.0001.0001.0001.0001.0001.0001.0001.0001.0001.0001.0001.0001.0001.0001.0001.0001.0001.0001.0001.0001.0001.0001.0001.0001.0001.0001.0001.0001.0001.0001.0001.0001.0001.0001.0001.0001.0001.0001.0001.0001.0001.0001.0001.0001.0001.0001.0001.0001.0001.0001.0001.0001.0001.0001.0001.0001.0001.0001.0001.0001.0001.0001.0001.0001.0001.0001.0001.0001.0001.0001.0001.0001.0001.0001.0001.0001.0001.0001.0001.0001.0001.0001.0001.0001.0001.0001.0001.0001.0001.0001.0001.0001.0001.0001.0001.0001.0001.0001.0001.0001.0001.0001.0001.0001.0001.0001.0001.0001.0001.0001.0001.0001.0001.0001.0001.0001.0001.0001.0001.0001.0001.0001.0001.0001.0001.0001.0001.0001zm0-.0183v-1.3114h-.4v1.3114zm-.2-1.5114h-1.07693v.4h1.07693zm-1.07693 0c-.445734 0-.87692-.4632-.87692-1.1113h-.4c0 .7917.540198 1.5113 1.27692 1.5113zm-.87692-1.1113v-5.2454h-.4v5.2454zm0-5.2454c0-.6481.431186-1.1114.87692-1.1114v-.4c-.736722 0-1.27692.7196-1.27692 1.5114zm.87692-1.1114c.75396 0 1.27693-.69861 1.27693-1.51133h-.4c0 .6691-.41396 1.11133-.87693 1.11133zm1.27693-1.51133v-.00262h-.4v.00262zm0-.00262c0-.8088-.52405-1.50873-1.27477-1.50873v.4c.45973 0 .87477.44356.87477 1.10873zm-1.27477-1.50873h-.00216v.4h.00216zm-.00216 0c-.445734 0-.87692-.46324-.87692-1.11136h-.4c0 .79175.540198 1.51136 1.27692 1.51136zm-.87692-1.11136v-5.24541h-.4v5.24541zm0-5.24541c0-.648118.431186-1.11135.87692-1.11135v-.4c-.736722 0-1.27692.719608-1.27692 1.51135zm.87692-1.11135h4.3077v-.4h-4.3077zm4.3077 0h.00003.00003.00003.00003.00003.00003.00004.00003.00003.00003.00003.00003.00003.00003.00004.00003.00003.00003.00003.00003.00003.00003.00003.00004.00003.00003.00003.00003.00003.00003.00003.00003.00003.00003.00004.00003.00003.00003.00003.00003.00003.00003.00003.00003.00003.00003.00003.00003.00003.00003.00003.00004.00003.00003.00003.00003.00003.00003.00003.00003.00003.00003.00003.00003.00003.00003.00003.00003.00003.00003.00003.00003.00003.00003.00003.00003.00003.00003.00003.00003.00003.00003.00003.00003.00003.00003.00003.00003.00003.00003.00003.00003.00003.00003.00003.00003.00002.00003.00003.00003.00003.00003.00003.00003.00003.00003.00003.00003.00003.00003.00003.00003.00003.00003.00003.00002.00003.00003.00003.00003.00003.00003.00003.00003.00003.00003.00003.00003.00003.00002.00003.00003.00003.00003.00003.00003.00003.00003.00003.00003.00002.00003.00003.00003.00003.00003.00003.00003.00003.00003.00002.00003.00003.00003.00003.00003.00003.00003.00003.00002.00003.00003.00003.00003.00003.00003.00003.00002.00003.00003.00003.00003.00003.00003.00003.00002.00003.00003.00003.00003.00003.00003.00002.00003.00003.00003.00003.00003.00003.00003.00002.00003.00003.00003.00003.00003.00003.00002.00003.00003.00003.00003.00003.00003.00002.00003.00003.00003.00003.00003.00002.00003.00003.00003.00003.00003.00003.00002.00003.00003.00003.00003.00003.00002.00003.00003.00003.00003.00003.00003.00002.00003.00003.00003.00003.00003.00002.00003.00003.00003.00003.00003.00002.00003.00003.00003.00003.00003.00003.00002.00003.00003.00003.00003.00003.00002.00003.00003.00003.00003.00003.00002.00003.00003.00003.00003.00003.00002.00003.00003.00003.00003.00003.00003.00002.00003.00003.00003.00003.00003.00002.00003.00003.00003.00003.00003.00002.00003.00003.00003.00003.00003.00003.00002.00003.00003.00003.00003.00003.00002.00003.00003.00003.00003.00003.00003.00002.00003.00003.00003.00003.00003.00003.00002.00003.00003.00003.00003.00003.00003.00002.00003.00003.00003.00003.00003.00003.00002.00003.00003.00003.00003.00003.00003.00003.00002.00003.00003.00003.00003.00003.00003.00003.00002.00003.00003.00003.00003.00003.00003.00003.00002.00003.00003.00003.00003.00003.00003.00003.00003.00002.00003.00003.00003.00003.00003.00003.00003.00003.00002.00003.00003.00003.00003.00003.00003.00003.00003.00003.00003.00002.00003.00003.00003.00003.00003.00003.00003.00003.00003.00003.00003.00003.00002.00003.00003.00003.00003.00003.00003.00003.00003.00003.00003.00003.00003.00003.00003.00003.00003.00003.00002.00003.00003.00003.00003.00003.00003.00003.00003.00003.00003.00003.00003.00003.00003.00003.00003.00003.00003.00003.00003.00003.00003.00003.00003.00003.00003.00003.00003.00003.00003.00003.00003.00003.00003.00003.00003.00003.00003.00003.00003.00003.00003.00003.00003.00003.00003.00003.00003.00003.00003.00003.00003.00004.00003.00003.00003.00003.00003.00003.00003.00003.00003.00003.00003.00003.00003.00003.00003.00004.00003.00003.00003.00003.00003.00003.00003.00003.00003.00004.00003.00003.00003.00003.00003.00003.00003.00003.00004.00003.00003.00003.00003.00003.00003.00004.00003.00003.00003.00003.00003v-.4c-.00001 0-.00002 0-.00003 0s-.00002 0-.00003 0-.00002 0-.00003 0-.00002 0-.00003 0-.00002 0-.00003 0c-.00002 0-.00003 0-.00004 0s-.00002 0-.00003 0-.00002 0-.00003 0-.00002 0-.00003 0-.00002 0-.00003 0-.00002 0-.00003 0-.00002 0-.00003 0-.00003 0-.00004 0-.00002 0-.00003 0-.00002 0-.00003 0-.00002 0-.00003 0-.00002 0-.00003 0-.00002 0-.00003 0-.00002 0-.00003 0-.00002 0-.00003 0-.00002 0-.00003 0c-.00002 0-.00003 0-.00004 0s-.00002 0-.00003 0-.00002 0-.00003 0-.00002 0-.00003 0-.00002 0-.00003 0-.00002 0-.00003 0-.00002 0-.00003 0-.00002 0-.00003 0-.00002 0-.00003 0-.00002 0-.00003 0-.00002 0-.00004 0c-.00001 0-.00002 0-.00003 0s-.00002 0-.00003 0-.00002 0-.00003 0-.00002 0-.00003 0-.00002 0-.00003 0-.00002 0-.00003 0-.00002 0-.00003 0-.00002 0-.00003 0-.00002 0-.00003 0-.00002 0-.00003 0-.00002 0-.00003 0-.00002 0-.00003 0-.00002 0-.00003 0-.00002 0-.00003 0-.00002 0-.00003 0-.00003 0-.00004 0-.00002 0-.00003 0-.00002 0-.00003 0-.00002 0-.00003 0-.00002 0-.00003 0-.00002 0-.00003 0-.00002 0-.00003 0-.00002 0-.00003 0-.00002 0-.00003 0-.00002 0-.00003 0-.00002 0-.00003 0-.00002 0-.00003 0-.00002 0-.00003 0-.00002 0-.00003 0-.00002 0-.00003 0-.00002 0-.00003 0-.00002 0-.00003 0-.00002 0-.00003 0-.00002 0-.00003 0-.00002 0-.00003 0-.00002 0-.00003 0-.00002 0-.00003 0-.00002 0-.00003 0-.00002 0-.00003 0-.00002 0-.00003 0-.00002 0-.00003 0-.00002 0-.00003 0-.00002 0-.00003 0-.00002 0-.00003 0-.00002 0-.00003 0-.00002 0-.00003 0-.00002 0-.00003 0-.00002 0-.00003 0-.00002 0-.00003 0-.00002 0-.00003 0-.00002 0-.00003 0-.00002 0-.00003 0-.00002 0-.00003 0-.00002 0-.00003 0-.00002 0-.00003 0-.00002 0-.00003 0-.00002 0-.00003 0-.00002 0-.00003 0-.00002 0-.00003 0-.00002 0-.00003 0-.00002 0-.00003 0-.00002 0-.00003 0-.00002 0-.00003 0-.00002 0-.00003 0-.00002 0-.00003 0-.00002 0-.00003 0-.00002 0-.00003 0-.00002 0-.00003 0-.00002 0-.00002 0c-.00001 0-.00002 0-.00003 0s-.00002 0-.00003 0-.00002 0-.00003 0-.00002 0-.00003 0-.00002 0-.00003 0-.00002 0-.00003 0-.00002 0-.00003 0-.00002 0-.00003 0-.00002 0-.00003 0-.00002 0-.00003 0-.00002 0-.00003 0-.00002 0-.00003 0-.00002 0-.00003 0-.00002 0-.00003 0-.00002 0-.00003 0-.00002 0-.00003 0-.00002 0-.00003 0c0 0-.00001 0-.00002 0s-.00002 0-.00003 0-.00002 0-.00003 0-.00002 0-.00003 0-.00002 0-.00003 0-.00002 0-.00003 0-.00002 0-.00003 0-.00002 0-.00003 0-.00002 0-.00003 0-.00002 0-.00003 0-.00002 0-.00003 0-.00002 0-.00003 0-.00002 0-.00003 0c0 0-.00001 0-.00002 0s-.00002 0-.00003 0-.00002 0-.00003 0-.00002 0-.00003 0-.00002 0-.00003 0-.00002 0-.00003 0-.00002 0-.00003 0-.00002 0-.00003 0-.00002 0-.00003 0-.00002 0-.00003 0-.00002 0-.00003 0c0 0-.00001 0-.00002 0s-.00002 0-.00003 0-.00002 0-.00003 0-.00002 0-.00003 0-.00002 0-.00003 0-.00002 0-.00003 0-.00002 0-.00003 0-.00002 0-.00003 0-.00002 0-.00003 0-.00002 0-.00002 0c-.00001 0-.00002 0-.00003 0s-.00002 0-.00003 0-.00002 0-.00003 0-.00002 0-.00003 0-.00002 0-.00003 0-.00002 0-.00003 0-.00002 0-.00003 0-.00002 0-.00003 0-.00001 0-.00002 0-.00002 0-.00003 0-.00002 0-.00003 0-.00002 0-.00003 0-.00002 0-.00003 0-.00002 0-.00003 0-.00002 0-.00003 0-.00002 0-.00003 0-.00002 0-.00002 0c-.00001 0-.00002 0-.00003 0s-.00002 0-.00003 0-.00002 0-.00003 0-.00002 0-.00003 0-.00002 0-.00003 0-.00002 0-.00003 0-.00002 0-.00003 0-.00002 0-.00002 0c-.00001 0-.00002 0-.00003 0s-.00002 0-.00003 0-.00002 0-.00003 0-.00002 0-.00003 0-.00002 0-.00003 0-.00002 0-.00003 0-.00002 0-.00003 0-.00001 0-.00002 0-.00002 0-.00003 0-.00002 0-.00003 0-.00002 0-.00003 0-.00002 0-.00003 0-.00002 0-.00003 0-.00002 0-.00003 0-.00001 0-.00002 0-.00002 0-.00003 0-.00002 0-.00003 0-.00002 0-.00003 0-.00002 0-.00003 0-.00002 0-.00003 0-.00002 0-.00003 0-.00001 0-.00002 0-.00002 0-.00003 0-.00002 0-.00003 0-.00002 0-.00003 0-.00002 0-.00003 0-.00002 0-.00003 0-.00002 0-.00003 0-.00001 0-.00002 0-.00002 0-.00003 0-.00002 0-.00003 0-.00002 0-.00003 0-.00002 0-.00003 0-.00002 0-.00003 0-.00002 0-.00003 0c0 0-.00001 0-.00002 0s-.00002 0-.00003 0-.00002 0-.00003 0-.00002 0-.00003 0-.00002 0-.00003 0-.00002 0-.00003 0-.00001 0-.00002 0-.00002 0-.00003 0-.00002 0-.00003 0-.00002 0-.00003 0-.00002 0-.00003 0-.00002 0-.00003 0-.00002 0-.00003 0c0 0-.00001 0-.00002 0s-.00002 0-.00003 0-.00002 0-.00003 0-.00002 0-.00003 0-.00002 0-.00003 0-.00002 0-.00003 0-.00001 0-.00002 0-.00002 0-.00003 0-.00002 0-.00003 0-.00002 0-.00003 0-.00002 0-.00003 0-.00002 0-.00003 0-.00002 0-.00002 0c-.00001 0-.00002 0-.00003 0s-.00002 0-.00003 0-.00002 0-.00003 0-.00002 0-.00003 0-.00002 0-.00003 0-.00002 0-.00003 0c0 0-.00001 0-.00002 0s-.00002 0-.00003 0-.00002 0-.00003 0-.00002 0-.00003 0-.00002 0-.00003 0-.00002 0-.00003 0-.00001 0-.00002 0-.00002 0-.00003 0-.00002 0-.00003 0-.00002 0-.00003 0-.00002 0-.00003 0-.00002 0-.00003 0-.00001 0-.00002 0-.00002 0-.00003 0-.00002 0-.00003 0-.00002 0-.00003 0-.00002 0-.00003 0-.00002 0-.00003 0-.00002 0-.00002 0c-.00001 0-.00002 0-.00003 0s-.00002 0-.00003 0-.00002 0-.00003 0-.00002 0-.00003 0-.00002 0-.00003 0-.00002 0-.00003 0c0 0-.00001 0-.00002 0s-.00002 0-.00003 0-.00002 0-.00003 0-.00002 0-.00003 0-.00002 0-.00003 0-.00002 0-.00003 0-.00001 0-.00002 0-.00002 0-.00003 0-.00002 0-.00003 0-.00002 0-.00003 0-.00002 0-.00003 0-.00002 0-.00003 0-.00001 0-.00002 0-.00002 0-.00003 0-.00002 0-.00003 0-.00002 0-.00003 0-.00002 0-.00003 0-.00002 0-.00003 0-.00002 0-.00003 0c0 0-.00001 0-.00002 0s-.00002 0-.00003 0-.00002 0-.00003 0-.00002 0-.00003 0-.00002 0-.00003 0-.00002 0-.00003 0-.00001 0-.00002 0-.00002 0-.00003 0-.00002 0-.00003 0-.00002 0-.00003 0-.00002 0-.00003 0-.00002 0-.00003 0-.00002 0-.00003 0c0 0-.00001 0-.00002 0s-.00002 0-.00003 0-.00002 0-.00003 0-.00002 0-.00003 0-.00002 0-.00003 0-.00002 0-.00003 0-.00002 0-.00002 0c-.00001 0-.00002 0-.00003 0s-.00002 0-.00003 0-.00002 0-.00003 0-.00002 0-.00003 0-.00002 0-.00003 0-.00002 0-.00003 0-.00002 0-.00002 0c-.00001 0-.00002 0-.00003 0s-.00002 0-.00003 0-.00002 0-.00003 0-.00002 0-.00003 0-.00002 0-.00003 0-.00002 0-.00003 0-.00002 0-.00002 0c-.00001 0-.00002 0-.00003 0s-.00002 0-.00003 0-.00002 0-.00003 0-.00002 0-.00003 0-.00002 0-.00003 0-.00002 0-.00003 0-.00002 0-.00003 0c0 0-.00001 0-.00002 0s-.00002 0-.00003 0-.00002 0-.00003 0-.00002 0-.00003 0-.00002 0-.00003 0-.00002 0-.00003 0-.00002 0-.00003 0-.00001 0-.00002 0-.00002 0-.00003 0-.00002 0-.00003 0-.00002 0-.00003 0-.00002 0-.00003 0-.00002 0-.00003 0-.00002 0-.00003 0-.00002 0-.00003 0-.00001 0-.00002 0-.00002 0-.00003 0-.00002 0-.00003 0-.00002 0-.00003 0-.00002 0-.00003 0-.00002 0-.00003 0-.00002 0-.00003 0-.00002 0-.00003 0-.00002 0-.00002 0c-.00001 0-.00002 0-.00003 0s-.00002 0-.00003 0-.00002 0-.00003 0-.00002 0-.00003 0-.00002 0-.00003 0-.00002 0-.00003 0-.00002 0-.00003 0-.00002 0-.00003 0-.00002 0-.00002 0c-.00001 0-.00002 0-.00003 0s-.00002 0-.00003 0-.00002 0-.00003 0-.00002 0-.00003 0-.00002 0-.00003 0-.00002 0-.00003 0-.00002 0-.00003 0-.00002 0-.00003 0-.00002 0-.00003 0-.00002 0-.00002 0c-.00001 0-.00002 0-.00003 0s-.00002 0-.00003 0-.00002 0-.00003 0-.00002 0-.00003 0-.00002 0-.00003 0-.00002 0-.00003 0-.00002 0-.00003 0-.00002 0-.00003 0-.00002 0-.00003 0-.00002 0-.00003 0-.00002 0-.00002 0c-.00001 0-.00002 0-.00003 0s-.00002 0-.00003 0-.00002 0-.00003 0-.00002 0-.00003 0-.00002 0-.00003 0-.00002 0-.00003 0-.00002 0-.00003 0-.00002 0-.00003 0-.00002 0-.00003 0-.00002 0-.00003 0-.00002 0-.00003 0-.00002 0-.00003 0-.00002 0-.00003 0-.00001 0-.00002 0-.00002 0-.00003 0-.00002 0-.00003 0-.00002 0-.00003 0-.00002 0-.00003 0-.00002 0-.00003 0-.00002 0-.00003 0-.00002 0-.00003 0-.00002 0-.00003 0-.00002 0-.00003 0-.00002 0-.00003 0-.00002 0-.00003 0-.00002 0-.00003 0-.00002 0-.00003 0-.00002 0-.00003 0-.00002 0-.00003 0-.00002 0-.00003 0-.00002 0-.00003 0-.00002 0-.00003 0-.00002 0-.00002 0c-.00001 0-.00002 0-.00003 0s-.00002 0-.00003 0-.00002 0-.00003 0-.00002 0-.00003 0-.00002 0-.00003 0-.00002 0-.00003 0-.00002 0-.00003 0-.00002 0-.00003 0-.00002 0-.00003 0-.00002 0-.00003 0-.00002 0-.00003 0-.00002 0-.00003 0-.00002 0-.00003 0-.00002 0-.00003 0-.00002 0-.00003 0-.00002 0-.00003 0-.00002 0-.00003 0-.00002 0-.00003 0-.00002 0-.00003 0-.00002 0-.00003 0-.00002 0-.00003 0-.00002 0-.00003 0-.00002 0-.00003 0-.00002 0-.00003 0-.00002 0-.00003 0-.00002 0-.00003 0-.00002 0-.00003 0-.00002 0-.00003 0-.00002 0-.00003 0-.00002 0-.00003 0-.00002 0-.00003 0-.00002 0-.00003 0-.00002 0-.00003 0-.00002 0-.00003 0-.00002 0-.00003 0-.00002 0-.00003 0-.00002 0-.00003 0-.00002 0-.00003 0-.00002 0-.00003 0-.00002 0-.00003 0-.00002 0-.00003 0-.00002 0-.00003 0-.00002 0-.00003 0-.00002 0-.00003 0-.00003 0-.00004 0-.00002 0-.00003 0-.00002 0-.00003 0-.00002 0-.00003 0-.00002 0-.00003 0-.00002 0-.00003 0-.00002 0-.00003 0-.00002 0-.00003 0-.00002 0-.00003 0-.00002 0-.00003 0-.00002 0-.00003 0-.00002 0-.00003 0-.00002 0-.00003 0-.00002 0-.00003 0-.00002 0-.00003 0-.00002 0-.00003 0-.00002 0-.00003 0-.00002 0-.00004 0c-.00001 0-.00002 0-.00003 0s-.00002 0-.00003 0-.00002 0-.00003 0-.00002 0-.00003 0-.00002 0-.00003 0-.00002 0-.00003 0-.00002 0-.00003 0-.00002 0-.00003 0-.00002 0-.00003 0-.00002 0-.00003 0-.00002 0-.00004 0c-.00001 0-.00002 0-.00003 0s-.00002 0-.00003 0-.00002 0-.00003 0-.00002 0-.00003 0-.00002 0-.00003 0-.00002 0-.00003 0-.00002 0-.00003 0-.00002 0-.00003 0-.00002 0-.00004 0c-.00001 0-.00002 0-.00003 0s-.00002 0-.00003 0-.00002 0-.00003 0-.00002 0-.00003 0-.00002 0-.00003 0-.00002 0-.00003 0-.00002 0-.00003 0-.00003 0-.00004 0-.00002 0-.00003 0-.00002 0-.00003 0-.00002 0-.00003 0-.00002 0-.00003 0-.00002 0-.00003 0-.00002 0-.00003 0zm.01507 0c.44574 0 .87693.463232.87693 1.11135h.4c0-.791742-.5402-1.51135-1.27693-1.51135zm.87693 1.11135c0 .64812-.43119 1.11136-.87693 1.11136v.4c.73673 0 1.27693-.71961 1.27693-1.51136zm-.87693 1.11136c-.00001 0-.00002 0-.00003 0s-.00002 0-.00003 0-.00002 0-.00003 0-.00002 0-.00003 0-.00002 0-.00003 0c-.00002 0-.00003 0-.00004 0s-.00002 0-.00003 0-.00002 0-.00003 0-.00002 0-.00003 0-.00002 0-.00003 0-.00002 0-.00003 0-.00002 0-.00003 0-.00003 0-.00004 0-.00002 0-.00003 0-.00002 0-.00003 0-.00002 0-.00003 0-.00002 0-.00003 0-.00002 0-.00003 0-.00002 0-.00003 0-.00002 0-.00003 0-.00002 0-.00003 0c-.00002 0-.00003 0-.00004 0s-.00002 0-.00003 0-.00002 0-.00003 0-.00002 0-.00003 0-.00002 0-.00003 0-.00002 0-.00003 0-.00002 0-.00003 0-.00002 0-.00003 0-.00002 0-.00003 0-.00002 0-.00003 0-.00002 0-.00004 0c-.00001 0-.00002 0-.00003 0s-.00002 0-.00003 0-.00002 0-.00003 0-.00002 0-.00003 0-.00002 0-.00003 0-.00002 0-.00003 0-.00002 0-.00003 0-.00002 0-.00003 0-.00002 0-.00003 0-.00002 0-.00003 0-.00002 0-.00003 0-.00002 0-.00003 0-.00002 0-.00003 0-.00002 0-.00003 0-.00002 0-.00003 0-.00003 0-.00004 0-.00002 0-.00003 0-.00002 0-.00003 0-.00002 0-.00003 0-.00002 0-.00003 0-.00002 0-.00003 0-.00002 0-.00003 0-.00002 0-.00003 0-.00002 0-.00003 0-.00002 0-.00003 0-.00002 0-.00003 0-.00002 0-.00003 0-.00002 0-.00003 0-.00002 0-.00003 0-.00002 0-.00003 0-.00002 0-.00003 0-.00002 0-.00003 0-.00002 0-.00003 0-.00002 0-.00003 0-.00002 0-.00003 0-.00002 0-.00003 0-.00002 0-.00003 0-.00002 0-.00003 0-.00002 0-.00003 0-.00002 0-.00003 0-.00002 0-.00003 0-.00002 0-.00003 0-.00002 0-.00003 0-.00002 0-.00003 0-.00002 0-.00003 0-.00002 0-.00003 0-.00002 0-.00003 0-.00002 0-.00003 0-.00002 0-.00003 0-.00002 0-.00003 0-.00002 0-.00003 0-.00002 0-.00003 0-.00002 0-.00003 0-.00002 0-.00003 0-.00002 0-.00003 0-.00002 0-.00003 0-.00002 0-.00003 0-.00002 0-.00003 0-.00002 0-.00003 0-.00002 0-.00003 0-.00002 0-.00003 0-.00002 0-.00003 0-.00002 0-.00003 0-.00002 0-.00003 0-.00002 0-.00003 0-.00002 0-.00003 0-.00002 0-.00003 0-.00002 0-.00003 0-.00002 0-.00002 0c-.00001 0-.00002 0-.00003 0s-.00002 0-.00003 0-.00002 0-.00003 0-.00002 0-.00003 0-.00002 0-.00003 0-.00002 0-.00003 0-.00002 0-.00003 0-.00002 0-.00003 0-.00002 0-.00003 0-.00002 0-.00003 0-.00002 0-.00003 0-.00002 0-.00003 0-.00002 0-.00003 0-.00002 0-.00003 0-.00002 0-.00003 0-.00002 0-.00003 0-.00002 0-.00003 0c0 0-.00001 0-.00002 0s-.00002 0-.00003 0-.00002 0-.00003 0-.00002 0-.00003 0-.00002 0-.00003 0-.00002 0-.00003 0-.00002 0-.00003 0-.00002 0-.00003 0-.00002 0-.00003 0-.00002 0-.00003 0-.00002 0-.00003 0-.00002 0-.00003 0-.00002 0-.00003 0c0 0-.00001 0-.00002 0s-.00002 0-.00003 0-.00002 0-.00003 0-.00002 0-.00003 0-.00002 0-.00003 0-.00002 0-.00003 0-.00002 0-.00003 0-.00002 0-.00003 0-.00002 0-.00003 0-.00002 0-.00003 0-.00002 0-.00003 0c0 0-.00001 0-.00002 0s-.00002 0-.00003 0-.00002 0-.00003 0-.00002 0-.00003 0-.00002 0-.00003 0-.00002 0-.00003 0-.00002 0-.00003 0-.00002 0-.00003 0-.00002 0-.00003 0-.00002 0-.00002 0c-.00001 0-.00002 0-.00003 0s-.00002 0-.00003 0-.00002 0-.00003 0-.00002 0-.00003 0-.00002 0-.00003 0-.00002 0-.00003 0-.00002 0-.00003 0-.00002 0-.00003 0-.00001 0-.00002 0-.00002 0-.00003 0-.00002 0-.00003 0-.00002 0-.00003 0-.00002 0-.00003 0-.00002 0-.00003 0-.00002 0-.00003 0-.00002 0-.00003 0-.00002 0-.00002 0c-.00001 0-.00002 0-.00003 0s-.00002 0-.00003 0-.00002 0-.00003 0-.00002 0-.00003 0-.00002 0-.00003 0-.00002 0-.00003 0-.00002 0-.00003 0-.00002 0-.00002 0c-.00001 0-.00002 0-.00003 0s-.00002 0-.00003 0-.00002 0-.00003 0-.00002 0-.00003 0-.00002 0-.00003 0-.00002 0-.00003 0-.00002 0-.00003 0-.00001 0-.00002 0-.00002 0-.00003 0-.00002 0-.00003 0-.00002 0-.00003 0-.00002 0-.00003 0-.00002 0-.00003 0-.00002 0-.00003 0-.00001 0-.00002 0-.00002 0-.00003 0-.00002 0-.00003 0-.00002 0-.00003 0-.00002 0-.00003 0-.00002 0-.00003 0-.00002 0-.00003 0-.00001 0-.00002 0-.00002 0-.00003 0-.00002 0-.00003 0-.00002 0-.00003 0-.00002 0-.00003 0-.00002 0-.00003 0-.00002 0-.00003 0-.00001 0-.00002 0-.00002 0-.00003 0-.00002 0-.00003 0-.00002 0-.00003 0-.00002 0-.00003 0-.00002 0-.00003 0-.00002 0-.00003 0c0 0-.00001 0-.00002 0s-.00002 0-.00003 0-.00002 0-.00003 0-.00002 0-.00003 0-.00002 0-.00003 0-.00002 0-.00003 0-.00001 0-.00002 0-.00002 0-.00003 0-.00002 0-.00003 0-.00002 0-.00003 0-.00002 0-.00003 0-.00002 0-.00003 0-.00002 0-.00003 0c0 0-.00001 0-.00002 0s-.00002 0-.00003 0-.00002 0-.00003 0-.00002 0-.00003 0-.00002 0-.00003 0-.00002 0-.00003 0-.00001 0-.00002 0-.00002 0-.00003 0-.00002 0-.00003 0-.00002 0-.00003 0-.00002 0-.00003 0-.00002 0-.00003 0-.00002 0-.00002 0c-.00001 0-.00002 0-.00003 0s-.00002 0-.00003 0-.00002 0-.00003 0-.00002 0-.00003 0-.00002 0-.00003 0-.00002 0-.00003 0c0 0-.00001 0-.00002 0s-.00002 0-.00003 0-.00002 0-.00003 0-.00002 0-.00003 0-.00002 0-.00003 0-.00002 0-.00003 0-.00001 0-.00002 0-.00002 0-.00003 0-.00002 0-.00003 0-.00002 0-.00003 0-.00002 0-.00003 0-.00002 0-.00003 0-.00001 0-.00002 0-.00002 0-.00003 0-.00002 0-.00003 0-.00002 0-.00003 0-.00002 0-.00003 0-.00002 0-.00003 0-.00002 0-.00002 0c-.00001 0-.00002 0-.00003 0s-.00002 0-.00003 0-.00002 0-.00003 0-.00002 0-.00003 0-.00002 0-.00003 0-.00002 0-.00003 0c0 0-.00001 0-.00002 0s-.00002 0-.00003 0-.00002 0-.00003 0-.00002 0-.00003 0-.00002 0-.00003 0-.00002 0-.00003 0-.00001 0-.00002 0-.00002 0-.00003 0-.00002 0-.00003 0-.00002 0-.00003 0-.00002 0-.00003 0-.00002 0-.00003 0-.00001 0-.00002 0-.00002 0-.00003 0-.00002 0-.00003 0-.00002 0-.00003 0-.00002 0-.00003 0-.00002 0-.00003 0-.00002 0-.00003 0c0 0-.00001 0-.00002 0s-.00002 0-.00003 0-.00002 0-.00003 0-.00002 0-.00003 0-.00002 0-.00003 0-.00002 0-.00003 0-.00001 0-.00002 0-.00002 0-.00003 0-.00002 0-.00003 0-.00002 0-.00003 0-.00002 0-.00003 0-.00002 0-.00003 0-.00002 0-.00003 0c0 0-.00001 0-.00002 0s-.00002 0-.00003 0-.00002 0-.00003 0-.00002 0-.00003 0-.00002 0-.00003 0-.00002 0-.00003 0-.00002 0-.00002 0c-.00001 0-.00002 0-.00003 0s-.00002 0-.00003 0-.00002 0-.00003 0-.00002 0-.00003 0-.00002 0-.00003 0-.00002 0-.00003 0-.00002 0-.00002 0c-.00001 0-.00002 0-.00003 0s-.00002 0-.00003 0-.00002 0-.00003 0-.00002 0-.00003 0-.00002 0-.00003 0-.00002 0-.00003 0-.00002 0-.00002 0c-.00001 0-.00002 0-.00003 0s-.00002 0-.00003 0-.00002 0-.00003 0-.00002 0-.00003 0-.00002 0-.00003 0-.00002 0-.00003 0-.00002 0-.00003 0c0 0-.00001 0-.00002 0s-.00002 0-.00003 0-.00002 0-.00003 0-.00002 0-.00003 0-.00002 0-.00003 0-.00002 0-.00003 0-.00002 0-.00003 0-.00001 0-.00002 0-.00002 0-.00003 0-.00002 0-.00003 0-.00002 0-.00003 0-.00002 0-.00003 0-.00002 0-.00003 0-.00002 0-.00003 0-.00002 0-.00003 0-.00001 0-.00002 0-.00002 0-.00003 0-.00002 0-.00003 0-.00002 0-.00003 0-.00002 0-.00003 0-.00002 0-.00003 0-.00002 0-.00003 0-.00002 0-.00003 0-.00002 0-.00002 0c-.00001 0-.00002 0-.00003 0s-.00002 0-.00003 0-.00002 0-.00003 0-.00002 0-.00003 0-.00002 0-.00003 0-.00002 0-.00003 0-.00002 0-.00003 0-.00002 0-.00003 0-.00002 0-.00002 0c-.00001 0-.00002 0-.00003 0s-.00002 0-.00003 0-.00002 0-.00003 0-.00002 0-.00003 0-.00002 0-.00003 0-.00002 0-.00003 0-.00002 0-.00003 0-.00002 0-.00003 0-.00002 0-.00003 0-.00002 0-.00002 0c-.00001 0-.00002 0-.00003 0s-.00002 0-.00003 0-.00002 0-.00003 0-.00002 0-.00003 0-.00002 0-.00003 0-.00002 0-.00003 0-.00002 0-.00003 0-.00002 0-.00003 0-.00002 0-.00003 0-.00002 0-.00003 0-.00002 0-.00002 0c-.00001 0-.00002 0-.00003 0s-.00002 0-.00003 0-.00002 0-.00003 0-.00002 0-.00003 0-.00002 0-.00003 0-.00002 0-.00003 0-.00002 0-.00003 0-.00002 0-.00003 0-.00002 0-.00003 0-.00002 0-.00003 0-.00002 0-.00003 0-.00002 0-.00003 0-.00002 0-.00003 0-.00001 0-.00002 0-.00002 0-.00003 0-.00002 0-.00003 0-.00002 0-.00003 0-.00002 0-.00003 0-.00002 0-.00003 0-.00002 0-.00003 0-.00002 0-.00003 0-.00002 0-.00003 0-.00002 0-.00003 0-.00002 0-.00003 0-.00002 0-.00003 0-.00002 0-.00003 0-.00002 0-.00003 0-.00002 0-.00003 0-.00002 0-.00003 0-.00002 0-.00003 0-.00002 0-.00003 0-.00002 0-.00003 0-.00002 0-.00002 0c-.00001 0-.00002 0-.00003 0s-.00002 0-.00003 0-.00002 0-.00003 0-.00002 0-.00003 0-.00002 0-.00003 0-.00002 0-.00003 0-.00002 0-.00003 0-.00002 0-.00003 0-.00002 0-.00003 0-.00002 0-.00003 0-.00002 0-.00003 0-.00002 0-.00003 0-.00002 0-.00003 0-.00002 0-.00003 0-.00002 0-.00003 0-.00002 0-.00003 0-.00002 0-.00003 0-.00002 0-.00003 0-.00002 0-.00003 0-.00002 0-.00003 0-.00002 0-.00003 0-.00002 0-.00003 0-.00002 0-.00003 0-.00002 0-.00003 0-.00002 0-.00003 0-.00002 0-.00003 0-.00002 0-.00003 0-.00002 0-.00003 0-.00002 0-.00003 0-.00002 0-.00003 0-.00002 0-.00003 0-.00002 0-.00003 0-.00002 0-.00003 0-.00002 0-.00003 0-.00002 0-.00003 0-.00002 0-.00003 0-.00002 0-.00003 0-.00002 0-.00003 0-.00002 0-.00003 0-.00002 0-.00003 0-.00002 0-.00003 0-.00002 0-.00003 0-.00002 0-.00003 0-.00002 0-.00003 0-.00003 0-.00004 0-.00002 0-.00003 0-.00002 0-.00003 0-.00002 0-.00003 0-.00002 0-.00003 0-.00002 0-.00003 0-.00002 0-.00003 0-.00002 0-.00003 0-.00002 0-.00003 0-.00002 0-.00003 0-.00002 0-.00003 0-.00002 0-.00003 0-.00002 0-.00003 0-.00002 0-.00003 0-.00002 0-.00003 0-.00002 0-.00003 0-.00002 0-.00003 0-.00002 0-.00004 0c-.00001 0-.00002 0-.00003 0s-.00002 0-.00003 0-.00002 0-.00003 0-.00002 0-.00003 0-.00002 0-.00003 0-.00002 0-.00003 0-.00002 0-.00003 0-.00002 0-.00003 0-.00002 0-.00003 0-.00002 0-.00003 0-.00002 0-.00004 0c-.00001 0-.00002 0-.00003 0s-.00002 0-.00003 0-.00002 0-.00003 0-.00002 0-.00003 0-.00002 0-.00003 0-.00002 0-.00003 0-.00002 0-.00003 0-.00002 0-.00003 0-.00002 0-.00004 0c-.00001 0-.00002 0-.00003 0s-.00002 0-.00003 0-.00002 0-.00003 0-.00002 0-.00003 0-.00002 0-.00003 0-.00002 0-.00003 0-.00002 0-.00003 0-.00003 0-.00004 0-.00002 0-.00003 0-.00002 0-.00003 0-.00002 0-.00003 0-.00002 0-.00003 0-.00002 0-.00003 0-.00002 0-.00003 0v.4h.00003.00003.00003.00003.00003.00003.00004.00003.00003.00003.00003.00003.00003.00003.00004.00003.00003.00003.00003.00003.00003.00003.00003.00004.00003.00003.00003.00003.00003.00003.00003.00003.00003.00003.00004.00003.00003.00003.00003.00003.00003.00003.00003.00003.00003.00003.00003.00003.00003.00003.00003.00004.00003.00003.00003.00003.00003.00003.00003.00003.00003.00003.00003.00003.00003.00003.00003.00003.00003.00003.00003.00003.00003.00003.00003.00003.00003.00003.00003.00003.00003.00003.00003.00003.00003.00003.00003.00003.00003.00003.00003.00003.00003.00003.00003.00003.00002.00003.00003.00003.00003.00003.00003.00003.00003.00003.00003.00003.00003.00003.00003.00003.00003.00003.00003.00002.00003.00003.00003.00003.00003.00003.00003.00003.00003.00003.00003.00003.00003.00002.00003.00003.00003.00003.00003.00003.00003.00003.00003.00003.00002.00003.00003.00003.00003.00003.00003.00003.00003.00003.00002.00003.00003.00003.00003.00003.00003.00003.00003.00002.00003.00003.00003.00003.00003.00003.00003.00002.00003.00003.00003.00003.00003.00003.00003.00002.00003.00003.00003.00003.00003.00003.00002.00003.00003.00003.00003.00003.00003.00003.00002.00003.00003.00003.00003.00003.00003.00002.00003.00003.00003.00003.00003.00003.00002.00003.00003.00003.00003.00003.00002.00003.00003.00003.00003.00003.00003.00002.00003.00003.00003.00003.00003.00002.00003.00003.00003.00003.00003.00003.00002.00003.00003.00003.00003.00003.00002.00003.00003.00003.00003.00003.00002.00003.00003.00003.00003.00003.00003.00002.00003.00003.00003.00003.00003.00002.00003.00003.00003.00003.00003.00002.00003.00003.00003.00003.00003.00002.00003.00003.00003.00003.00003.00003.00002.00003.00003.00003.00003.00003.00002.00003.00003.00003.00003.00003.00002.00003.00003.00003.00003.00003.00003.00002.00003.00003.00003.00003.00003.00002.00003.00003.00003.00003.00003.00003.00002.00003.00003.00003.00003.00003.00003.00002.00003.00003.00003.00003.00003.00003.00002.00003.00003.00003.00003.00003.00003.00002.00003.00003.00003.00003.00003.00003.00003.00002.00003.00003.00003.00003.00003.00003.00003.00002.00003.00003.00003.00003.00003.00003.00003.00002.00003.00003.00003.00003.00003.00003.00003.00003.00002.00003.00003.00003.00003.00003.00003.00003.00003.00002.00003.00003.00003.00003.00003.00003.00003.00003.00003.00003.00002.00003.00003.00003.00003.00003.00003.00003.00003.00003.00003.00003.00003.00002.00003.00003.00003.00003.00003.00003.00003.00003.00003.00003.00003.00003.00003.00003.00003.00003.00003.00002.00003.00003.00003.00003.00003.00003.00003.00003.00003.00003.00003.00003.00003.00003.00003.00003.00003.00003.00003.00003.00003.00003.00003.00003.00003.00003.00003.00003.00003.00003.00003.00003.00003.00003.00003.00003.00003.00003.00003.00003.00003.00003.00003.00003.00003.00003.00003.00003.00003.00003.00003.00003.00004.00003.00003.00003.00003.00003.00003.00003.00003.00003.00003.00003.00003.00003.00003.00003.00004.00003.00003.00003.00003.00003.00003.00003.00003.00003.00004.00003.00003.00003.00003.00003.00003.00003.00003.00004.00003.00003.00003.00003.00003.00003.00004.00003.00003.00003.00003.00003zm-.01507 0h-3.23077v.4h3.23077zm-3.43077.2v3.16822h.4v-3.16822zm.11232 3.34798c1.13483.5535 2.04152 1.64852 2.04152 3.20616h.4c0-1.73649-1.01884-2.95731-2.26617-3.56568zm2.04152 3.20616v.00262h.4v-.00262zm0 .00262c0 1.55913-.90581 2.65533-2.04145 3.20873l.17522.3596c1.24866-.6085 2.26623-1.8307 2.26623-3.56833zm-2.15384 3.38853v3.1682h.4v-3.1682zm.2 3.3682h23.69235v-.4h-23.69235z" mask="url(#a)"/></g></svg>