<svg fill="none" height="16" viewBox="0 0 16 16" width="16" xmlns="http://www.w3.org/2000/svg"><g fill="#000"><path d="m6.75863 0c-3.72672 0-6.75863 3.03191-6.75863 6.75863 0 3.72677 3.03191 6.75867 6.75863 6.75867 3.72677 0 6.75867-3.0319 6.75867-6.75867 0-3.72672-3.032-6.75863-6.75867-6.75863zm0 12.335c-3.07488 0-5.57635-2.50149-5.57635-5.57637s2.50147-5.57635 5.57635-5.57635c3.07469 0 5.57637 2.50147 5.57637 5.57635s-2.50149 5.57637-5.57637 5.57637z"/><path d="m15.8266 14.991-4.2955-4.2956c-.231-.2309-.605-.2309-.8359 0-.231.2308-.231.6051 0 .8359l4.2956 4.2956c.1154.1154.2666.1731.4179.1731.1514 0 .3025-.0577.4179-.1731.231-.2308.231-.6052 0-.8359z"/></g></svg>