<svg fill="none" height="18" viewBox="0 0 18 18" width="18" xmlns="http://www.w3.org/2000/svg"><path d="m16.704 6.01488c-.0853-.78785-.4635-1.51489-1.0595-2.03706-.5961-.52216-1.3666-.80134-2.1588-.78221h-.914c-.1568-.89508-.6242-1.7062-1.32-2.290692-.6958-.584491-1.57542-.904918-2.48412-.904918-.90871 0-1.78832.320427-2.4841.904918-.69579.584492-1.16319 1.395612-1.31999 2.290692h-.92688c-.79222-.01913-1.56271.26005-2.15879.78221-.59608.52217-.974246 1.24921-1.059554 2.03706l-.8045859 8.59942c-.0403329.4218.0087609.8473.1440749 1.2488s.353805.77.641201 1.0813c.308354.3339.682684.6001 1.099284.7818.41661.1817.8664.275 1.32091.2738h11.09685c.4545.0012.9043-.0921 1.3209-.2738s.7909-.4479 1.0993-.7818c.2874-.3113.5059-.6798.6412-1.0813s.1844-.827.1441-1.2488zm-7.93642-4.75028c.56936.00185 1.12205.19237 1.57162.54177.4495.34939.7706.83795.9129 1.38924h-4.96909c.14234-.55129.4634-1.03985.91296-1.38924.44955-.3494 1.00224-.53992 1.57161-.54177zm7.01602 14.8044c-.1861.2038-.4129.3664-.6656.4773-.2528.1108-.526.1675-.802.1664h-11.09685c-.27601.0011-.54919-.0556-.80196-.1664-.25276-.1109-.4795-.2735-.6656-.4773-.16614-.1784-.29273-.3899-.37148-.6206s-.1079-.4755-.08553-.7182l.8239-8.59303c.05314-.4664.28007-.89566.63555-1.20224.35549-.30657.81343-.46795 1.28258-.45199h.86895v1.28734c0 .17071.06782.33443.18853.45514.12071.12072.28443.18853.45514.18853s.33443-.06781.45514-.18853c.12072-.12071.18853-.28443.18853-.45514v-1.28734h5.1494v1.28734c0 .17071.0678.33443.1885.45514.1207.12072.2844.18853.4551.18853s.3345-.06781.4552-.18853c.1207-.12071.1885-.28443.1885-.45514v-1.28734h.8689c.4714-.01928.9325.1406 1.2908.44749.3582.30689.587.73804.6402 1.20674l.8239 8.59943c.0198.2426-.0118.4867-.0928.7163s-.2094.4395-.377.6161z" fill="#000"/></svg>