<svg fill="none" height="22" viewBox="0 0 19 22" width="19" xmlns="http://www.w3.org/2000/svg"><g fill="#000"><path d="m17.2857 0h-12.04962c-.07292.00210347-.1456.00937644-.21749.0217642-.13046-.02124191-.2642-.0086516-.38841.0365666-.1242.0452182-.23473.1215512-.32101.2216982l-.10607.126342c-.04298.03685-.08745.067729-.12909.11l-1.7065 2.075149-2.183339 2.59922c-.071896.08706-.1238607.1888-.1522434.29809-.02838275.10928-.03249528.22345-.012049.33449-.01090553.06566-.01754565.13196-.0198786.19847v14.40681c.00047829.4166.166193.816.460789 1.1106s.694021.4603 1.110641.4608h15.71427c.4166-.0005.8161-.1662 1.1107-.4608s.4603-.694.4607-1.1106v-18.85717c-.0004-.41662-.1661-.816045-.4607-1.110641s-.6941-.46031071-1.1107-.460789zm0 20.4286h-15.71427l.05099-14.46283 1.70649-2.07515 1.9481-2.31919 12.00869-.00079z"/><path d="m14.9288 7.07139c.2084 0 .4082-.08278.5556-.23013.1473-.14735.2301-.3472.2301-.55558v-2.35714c0-.20839-.0828-.40824-.2301-.55559-.1474-.14735-.3472-.23013-.5556-.23013s-.4083.08278-.5556.23013c-.1474.14735-.2301.3472-.2301.55559v2.35714c0 .20838.0827.40823.2301.55558.1473.14735.3472.23013.5556.23013z"/><path d="m11.7857 7.07139c.2084 0 .4082-.08278.5556-.23013.1473-.14735.2301-.3472.2301-.55558v-2.35714c0-.20839-.0828-.40824-.2301-.55559-.1474-.14735-.3472-.23013-.5556-.23013s-.4082.08278-.5556.23013c-.1473.14735-.2301.3472-.2301.55559v2.35714c0 .20838.0828.40823.2301.55558.1474.14735.3472.23013.5556.23013z"/><path d="m8.64265 7.07139c.20838 0 .40823-.08278.55558-.23013s.23013-.3472.23013-.55558v-2.35714c0-.20839-.08278-.40824-.23013-.55559s-.3472-.23013-.55558-.23013c-.20839 0-.40824.08278-.55559.23013s-.23013.3472-.23013.55559v2.35714c0 .20838.08278.40823.23013.55558s.3472.23013.55559.23013z"/><path d="m4.71436 3.92854v2.35714c0 .20838.08278.40823.23013.55558s.3472.23013.55558.23013.40823-.08278.55558-.23013.23013-.3472.23013-.55558v-2.35714c0-.20839-.08278-.40824-.23013-.55559s-.3472-.23013-.55558-.23013-.40823.08278-.55558.23013-.23013.3472-.23013.55559z"/></g></svg>