<svg fill="none" height="17" viewBox="0 0 19 17" width="19" xmlns="http://www.w3.org/2000/svg"><path d="m9.5 17c-.27049 0-.53127-.0985-.7345-.2776-.76756-.6749-1.50757-1.3092-2.16047-1.8688l-.00333-.0029c-1.91418-1.6405-3.56714-3.0572-4.71724-4.4528-1.285636-1.56012-1.88446-3.03938-1.88446-4.65538 0-1.57008.535332-3.01857 1.50728-4.07885.98354-1.072813 2.33311-1.66367 3.80052-1.66367 1.09676 0 2.10117.348712 2.98528 1.03637.44618.34711.85061.77192 1.20692 1.26743.35645-.49551.7607-.92032 1.2071-1.26743.8841-.687658 1.8885-1.03637 2.9852-1.03637 1.4673 0 2.817.590857 3.8006 1.66367.9719 1.06028 1.5071 2.50877 1.5071 4.07885 0 1.616-.5987 3.09526-1.8843 4.65528-1.1501 1.3957-2.8029 2.8123-4.7168 4.4526-.6541.5604-1.3952 1.1957-2.1645 1.8723-.2031.1788-.46405.2773-.7344.2773zm-4.1922-15.88068c-1.15285 0-2.21192.46271-2.98238 1.303-.7819.85298-1.21257 2.03207-1.21257 3.3202 0 1.35913.50228 2.57467 1.62846 3.94123 1.08849 1.32095 2.70753 2.70845 4.58214 4.31515l.00348.0029c.65535.5617 1.39827 1.1985 2.17148 1.8784.77789-.6812 1.52189-1.319 2.17859-1.8816 1.8744-1.6066 3.4933-2.9939 4.5818-4.31485 1.1261-1.36656 1.6284-2.5821 1.6284-3.94123 0-1.28813-.4307-2.46722-1.2126-3.3202-.7703-.84029-1.8295-1.303-2.9823-1.303-.8445 0-1.6199.26999-2.3045.80239-.6101.47466-1.0352 1.07471-1.2843 1.49456-.12818.2159-.35374.34478-.6035.34478s-.47532-.12888-.60346-.34478c-.24904-.41985-.67406-1.0199-1.28433-1.49456-.68464-.5324-1.46003-.80239-2.30441-.80239z" fill="#000"/></svg>